<?xml version="1.0" encoding="UTF-8"?>
<svg id="Layer_2" data-name="Layer 2" xmlns="http://www.w3.org/2000/svg" xmlns:xlink="http://www.w3.org/1999/xlink" viewBox="0 0 1920.41 1081.78">
  <defs>
    <style>
      .cls-1 {
        fill: #fff;
      }

      .cls-2 {
        fill: #a4dbe9;
      }

      .cls-3 {
        opacity: .5;
        stroke: #f2eb79;
        stroke-dasharray: 0 0 .39 3.88;
        stroke-linecap: round;
        stroke-linejoin: round;
        stroke-width: 2px;
      }

      .cls-3, .cls-4, .cls-5 {
        fill: none;
      }

      .cls-6 {
        fill: #fdea79;
      }

      .cls-7 {
        clip-path: url(#clippath);
      }

      .cls-5 {
        stroke: #20648b;
        stroke-miterlimit: 10;
        stroke-width: .5px;
      }

      .cls-8 {
        fill: #d1edfb;
      }
    </style>
    <clipPath id="clippath">
      <rect class="cls-4" y="1.78" width="1920" height="1080"/>
    </clipPath>
  </defs>
  <g id="Layer_1-2" data-name="Layer 1">
    <rect class="cls-2" x=".41" width="1920" height="1080"/>
    <g class="cls-7">
      <g>
        <rect class="cls-1" x="1771.16" y="850.02" width="86.2" height="37.39" rx="12.46" ry="12.46"/>
        <rect class="cls-6" x="1810.37" y="850.02" width="7.79" height="37.39"/>
        <path class="cls-6" d="M1771.16,868.71s0,24.19,84.75,12.06c0,0-2,7.99-19.3,6.64h-52.99s-12.97,2.39-12.46-18.69Z"/>
        <line class="cls-5" x1="1818.16" y1="850.02" x2="1818.16" y2="887.4"/>
        <line class="cls-5" x1="1810.37" y1="850.02" x2="1810.37" y2="887.4"/>
        <path class="cls-5" d="M1857.36,874.96c0,6.88-5.58,12.46-12.46,12.46h-61.28c-6.88,0-12.46-5.58-12.46-12.46v-12.46c0-6.88,5.58-12.46,12.46-12.46h61.28c6.88,0,12.46,5.58,12.46,12.46v12.46Z"/>
      </g>
      <g>
        <path class="cls-1" d="M1804.56,747.35c-4.06,8.11-21.05,7.83-37.95-.64-16.9-8.46-27.29-21.9-23.22-30.02,4.06-8.11,21.05-7.83,37.94,.64,16.9,8.47,27.3,21.9,23.23,30.02Z"/>
        <path class="cls-8" d="M1743.39,716.69s11.9,29.15,57.06,34.63c0,0-13.02,6.99-38.5-6.95,0,0-23.99-14.76-18.56-27.68Z"/>
        <path class="cls-8" d="M1763.57,745.18l14.72-29.38s3.26,1.55,5.33,2.73l-14.67,29.28-5.38-2.64Z"/>
        <line class="cls-5" x1="1763.62" y1="745.08" x2="1778.29" y2="715.81"/>
        <line class="cls-5" x1="1783.62" y1="718.54" x2="1768.95" y2="747.82"/>
        <path class="cls-5" d="M1804.56,747.35c-4.06,8.11-21.05,7.83-37.95-.64-16.9-8.46-27.29-21.9-23.22-30.02,4.06-8.11,21.05-7.83,37.94,.64,16.9,8.47,27.3,21.9,23.23,30.02Z"/>
      </g>
      <g>
        <path class="cls-1" d="M1767.66,839.72c-.14,.29-.33,.63-.53,1.06-.06,.13-.15,.24-.21,.37v.04s-.04,.06-.04,.06c-.13,.29-.31,.6-.51,.94-.95,1.73-2.37,3.99-4.29,6.64-.14,.22-.29,.38-.46,.58-10.29,13.68-34.71,35.78-85.3,36.95-41.48-50.19-28.39-90.3-24.84-98.85,.44-1.13,.74-1.71,.74-1.71,8.21-18,28.21-26.54,44.59-19.06,13.35,6.1,15.85,30.39,13.44,45.55,0,.19-.03,.34-.06,.48,.09-.12,.22-.21,.36-.35,9.91-10.7,29.2-24.13,42-18.28,15.92,7.27,22.65,26.91,15.54,44.55-.15,.32-.28,.7-.43,1.02Z"/>
        <path class="cls-8" d="M1651.49,787.51s-4.31,77.96,46.1,96.97c0,0-16.63,1.97-21.26,1.88,0,0-43.52-49.49-24.84-98.85Z"/>
        <polyline class="cls-5" points="1754.5 857.56 1723 843.19 1722.65 824.85 1692.79 860.07 1697.93 827.8 1676.59 842.73 1676.93 822.15 1646.92 808.45"/>
        <path class="cls-5" d="M1767.66,839.72c-.14,.29-.33,.63-.53,1.06-.06,.13-.15,.24-.21,.37v.04s-.04,.06-.04,.06c-.13,.29-.31,.6-.51,.94-.95,1.73-2.37,3.99-4.29,6.64-.14,.22-.29,.38-.46,.58-10.29,13.68-34.71,35.78-85.3,36.95-41.48-50.19-28.39-90.3-24.84-98.85,.44-1.13,.74-1.71,.74-1.71,8.21-18,28.21-26.54,44.59-19.06,13.35,6.1,15.85,30.39,13.44,45.55,0,.19-.03,.34-.06,.48,.09-.12,.22-.21,.36-.35,9.91-10.7,29.2-24.13,42-18.28,15.92,7.27,22.65,26.91,15.54,44.55-.15,.32-.28,.7-.43,1.02Z"/>
      </g>
      <g>
        <path class="cls-1" d="M1594.38,955.49c4.65,9.75,.52,21.44-9.24,26.1-9.76,4.66-21.44,.52-26.09-9.23-4.66-9.76-.52-21.44,9.24-26.1,9.76-4.66,21.44-.52,26.1,9.23Z"/>
        <path class="cls-6" d="M1595.48,969.46c-1.61,4.84-5.13,9.64-10.34,12.12-9.77,4.66-21.45,.52-26.11-9.24-2.33-4.88-2.46-10.24-.78-14.96,0,0,2.2,17.45,16.93,20.39,0,0,3.42,1.3,8.34-.07l-9.73-25.87,11.97,25.09c2.97-1.23,6.32-3.49,9.71-7.48Z"/>
        <line class="cls-5" x1="1566.02" y1="947.34" x2="1582.88" y2="982.67"/>
        <path class="cls-5" d="M1584.98,946.18c3.98,1.85,7.36,5.04,9.4,9.31,4.32,9.06,1.07,19.77-7.23,24.99l-16.63-34.85"/>
        <path class="cls-5" d="M1594.38,955.49c4.65,9.75,.52,21.44-9.24,26.1-9.76,4.66-21.44,.52-26.09-9.23-4.66-9.76-.52-21.44,9.24-26.1,9.76-4.66,21.44-.52,26.1,9.23Z"/>
      </g>
      <g>
        <path class="cls-1" d="M1657.89,1056.9c.22,15.4-12.09,28.07-27.49,28.29-15.4,.22-28.07-12.08-28.29-27.49-.22-15.4,12.09-28.07,27.49-28.29,15.41-.22,28.07,12.08,28.29,27.49Z"/>
        <path class="cls-6" d="M1651,1075.65c-4.96,5.31-12.38,9.42-20.6,9.54-15.42,.22-28.09-12.09-28.31-27.5-.12-7.7,2.92-14.72,7.9-19.83,0,0-7.54,23.91,9.78,36.48,0,0,3.65,3.72,10.84,4.88l2.8-39.29,.56,39.61c4.58,.17,10.26-.76,17.03-3.9Z"/>
        <line class="cls-5" x1="1626.02" y1="1029.47" x2="1626.82" y2="1085.24"/>
        <path class="cls-5" d="M1651.26,1039.25c4.05,4.77,6.53,10.91,6.63,17.65,.2,14.29-10.39,26.23-24.23,28.05l-.78-55.02"/>
        <path class="cls-5" d="M1657.89,1056.9c.22,15.4-12.09,28.07-27.49,28.29-15.4,.22-28.07-12.08-28.29-27.49-.22-15.4,12.09-28.07,27.49-28.29,15.41-.22,28.07,12.08,28.29,27.49Z"/>
      </g>
      <g>
        <path class="cls-1" d="M1464.5,1084.12c-8.75,9.66-20.35,14.89-34.52,15.54,.22,30.73-6.19,52.62-19.09,65.07-9.82,9.46-20.09,10.04-22.38,10.04-.27,0-.42,0-.45-.04-12.53-.12-22.69-4.54-30.05-13.14-13.79-16.08-13.82-42.42-12.98-54.38-8.44-1.98-14.74-9.54-14.74-18.6,0-10.53,8.56-19.09,19.09-19.09s19.09,8.56,19.09,19.09c0,9.44-6.83,17.26-15.81,18.79-.73,10.77-.88,35.2,11.15,49.22,5.88,6.87,14.09,10.38,24.48,10.5,.5,0,9.05,.19,17.49-8.1,7.75-7.6,16.84-24.02,16.58-59.37-14.17-.65-25.77-5.88-34.52-15.54-23.45-25.93-18.37-74.43-18.14-76.49,.96-8.24,4.2-14.39,9.62-18.25,5-3.56,10.92-4.47,15.39-4.51,.88-2.29,3.09-3.9,5.69-3.9h2.79c3.39,0,6.14,2.75,6.14,6.18s-2.75,6.15-6.14,6.15h-2.79c-2.86,0-5.27-1.94-5.92-4.58-3.89,.08-8.86,.88-12.98,3.78-4.51,3.21-7.18,8.44-7.98,15.58-.08,.46-5.16,48.84,17.14,73.47,8.75,9.66,20.7,14.51,35.47,14.32,.27,.04,.5,.04,.73,.04,14.55,0,26.24-4.85,34.83-14.36,22.3-24.67,17.22-73.02,17.15-73.51-.81-7.1-3.52-12.37-8.02-15.54-3.55-2.56-7.71-3.47-11.26-3.7-.53,2.86-3.02,5-6.07,5h-2.75c-3.39,0-6.15-2.75-6.15-6.15s2.75-6.18,6.15-6.18h2.75c2.44,0,4.5,1.41,5.5,3.43,4.28,.19,9.5,1.26,14.05,4.47,5.46,3.86,8.67,10,9.63,18.25,.22,2.06,5.3,50.56-18.14,76.49Z"/>
        <path class="cls-6" d="M1333.81,1077.87s-2.85,22.61,23.5,28.11c0,0-15.8,4.68-22.44-4.51-8.37-11.58-1.06-23.6-1.06-23.6Z"/>
        <path class="cls-5" d="M1464.5,1084.12c-8.75,9.66-20.35,14.89-34.52,15.54,.22,30.73-6.19,52.62-19.09,65.07-9.82,9.47-20.09,10.04-22.38,10.04-.27,0-.42,0-.45-.03-12.53-.12-22.69-4.54-30.05-13.14-13.79-16.07-13.82-42.42-12.98-54.38-8.44-1.99-14.74-9.54-14.74-18.6,0-10.53,8.56-19.09,19.09-19.09s19.09,8.56,19.09,19.09c0,9.44-6.83,17.26-15.81,18.79-.73,10.77-.88,35.21,11.15,49.22,5.88,6.87,14.09,10.38,24.48,10.5,.5,0,9.05,.19,17.49-8.1,7.75-7.6,16.84-24.01,16.58-59.37-14.17-.65-25.77-5.88-34.52-15.54-23.45-25.93-18.37-74.43-18.14-76.49,.96-8.24,4.2-14.39,9.62-18.25,5-3.56,10.92-4.47,15.39-4.51,.88-2.29,3.09-3.9,5.69-3.9h2.79c3.39,0,6.14,2.75,6.14,6.18s-2.75,6.15-6.14,6.15h-2.79c-2.86,0-5.27-1.94-5.92-4.58-3.89,.08-8.86,.88-12.98,3.78-4.51,3.21-7.18,8.44-7.98,15.58-.08,.46-5.16,48.84,17.14,73.47,8.75,9.66,20.7,14.51,35.47,14.32,.27,.03,.5,.03,.73,.03,14.55,0,26.24-4.85,34.83-14.36,22.3-24.67,17.22-73.01,17.15-73.51-.81-7.1-3.52-12.37-8.02-15.54-3.55-2.56-7.71-3.47-11.26-3.7-.53,2.86-3.02,5-6.07,5h-2.75c-3.39,0-6.15-2.75-6.15-6.15s2.75-6.18,6.15-6.18h2.75c2.44,0,4.5,1.41,5.5,3.43,4.28,.19,9.5,1.27,14.05,4.47,5.46,3.86,8.67,10.01,9.63,18.25,.22,2.06,5.3,50.56-18.14,76.49Z"/>
        <path class="cls-5" d="M1361.25,1087.77c0,6.27-5.08,11.35-11.35,11.35s-11.35-5.08-11.35-11.35,5.08-11.35,11.35-11.35,11.35,5.08,11.35,11.35Z"/>
        <line class="cls-5" x1="1394.7" y1="984.88" x2="1394.47" y2="988.73"/>
        <line class="cls-5" x1="1458.97" y1="984.91" x2="1459.54" y2="988.81"/>
      </g>
      <g>
        <path class="cls-1" d="M1796.72,983.91c0,7.42-4.85,13.44-10.81,13.44h-39.01v39.03c0,5.96-6.04,10.79-13.46,10.79-3.73,0-7.07-1.21-9.52-3.16-2.44-1.96-3.94-4.65-3.94-7.63v-39.03h-39.03c-2.98,0-5.67-1.5-7.64-3.95-1.94-2.42-3.16-5.78-3.16-9.49,0-7.44,4.83-13.46,10.79-13.46h39.03v-39.04c0-5.96,6.02-10.79,13.46-10.79,3.71,0,7.07,1.21,9.51,3.16,2.45,1.96,3.95,4.65,3.95,7.63v39.04h39.01c2.98,0,5.67,1.5,7.63,3.94,1.96,2.42,3.17,5.81,3.17,9.52Z"/>
        <path class="cls-8" d="M1673.31,993.41h53.4v52.32s-7.76-2.46-6.64-14.77l-.1-33.6h-34.57s-7.72,1.59-12.1-3.95Z"/>
        <path class="cls-8" d="M1719.98,970.45h6.74v-48.37s-6.74,3.1-6.74,9.33v39.04Z"/>
        <path class="cls-5" d="M1796.72,983.91c0,7.42-4.85,13.44-10.81,13.44h-39.01v39.03c0,5.96-6.04,10.79-13.46,10.79-3.73,0-7.07-1.21-9.52-3.16-2.44-1.96-3.94-4.65-3.94-7.63v-39.03h-39.03c-2.98,0-5.67-1.5-7.64-3.95-1.94-2.42-3.16-5.78-3.16-9.49,0-7.44,4.83-13.46,10.79-13.46h39.03v-39.04c0-5.96,6.02-10.79,13.46-10.79,3.71,0,7.07,1.21,9.51,3.16,2.45,1.96,3.95,4.65,3.95,7.63v39.04h39.01c2.98,0,5.67,1.5,7.63,3.94,1.96,2.42,3.17,5.81,3.17,9.52Z"/>
      </g>
      <g>
        <path class="cls-1" d="M1278.01,1121.47c3.49,13.09-4.28,26.48-17.36,29.96-13.06,3.48-26.45-4.28-29.94-17.37-2.67-10.04,1.29-20.31,9.21-26.08l-33.17-124.55c-1.12-4.2,1.81-8.64,6.52-9.9,2.36-.63,4.76-.35,6.67,.62,1.9,.95,3.39,2.62,3.94,4.71l33.18,124.58c9.74,1.07,18.28,7.99,20.95,18.02Z"/>
        <path class="cls-8" d="M1213.26,973.53c-2.82,.98-7.64,5.69-6.52,9.9l33.17,124.55c-7.91,5.77-11.88,16.05-9.21,26.08,3.49,13.08,16.88,20.85,29.94,17.37,13.08-3.49,20.85-16.88,17.36-29.96-.21-.81-.47-1.59-.76-2.35,0,0-1.95,21.31-18.32,25.81,0,0-16.84,4.04-22.5-12,0,0-2.32-18.88,9.21-20.54l-33.03-128.68s-.88-2.95,.67-10.17Z"/>
        <line class="cls-5" x1="1225.93" y1="987.62" x2="1217.62" y2="989.83"/>
        <line class="cls-5" x1="1230.62" y1="1005.23" x2="1222.31" y2="1007.44"/>
        <line class="cls-5" x1="1235.31" y1="1022.86" x2="1227" y2="1025.07"/>
        <line class="cls-5" x1="1240" y1="1040.47" x2="1231.7" y2="1042.69"/>
        <line class="cls-5" x1="1244.7" y1="1058.1" x2="1236.39" y2="1060.31"/>
        <line class="cls-5" x1="1249.39" y1="1075.71" x2="1241.08" y2="1077.93"/>
        <path class="cls-5" d="M1278.04,1121.47c3.49,13.09-4.28,26.48-17.36,29.96-13.06,3.48-26.45-4.28-29.94-17.37-2.67-10.04,1.29-20.31,9.21-26.08l-33.17-124.55c-1.12-4.2,1.81-8.64,6.52-9.9,2.36-.63,4.76-.35,6.67,.62,1.9,.95,3.39,2.62,3.94,4.71l33.18,124.58c9.74,1.07,18.28,7.99,20.95,18.02Z"/>
      </g>
      <g>
        <path class="cls-1" d="M1846.11,185.69c0,9.05-7.34,16.4-16.39,16.4h-80.62c-9.05,0-16.39-7.34-16.39-16.4v-16.39c0-9.06,7.34-16.39,16.39-16.39h80.62c9.06,0,16.39,7.34,16.39,16.39v16.39Z"/>
        <rect class="cls-6" x="1784.29" y="152.9" width="10.25" height="49.18"/>
        <path class="cls-6" d="M1732.71,177.49s0,31.83,111.5,15.86c0,0-2.63,10.51-25.39,8.73h-69.71s-17.07,3.14-16.39-24.59Z"/>
        <line class="cls-5" x1="1794.53" y1="152.9" x2="1794.53" y2="202.09"/>
        <line class="cls-5" x1="1784.29" y1="152.9" x2="1784.29" y2="202.09"/>
        <path class="cls-5" d="M1846.11,185.72c0,9.05-7.34,16.4-16.39,16.4h-80.62c-9.05,0-16.39-7.34-16.39-16.4v-16.39c0-9.05,7.34-16.39,16.39-16.39h80.62c9.06,0,16.39,7.34,16.39,16.39v16.39Z"/>
      </g>
      <g>
        <path class="cls-1" d="M1779.9,313.58c-6.68,13.33-34.6,12.86-62.36-1.05-27.76-13.91-44.84-35.99-38.16-49.32,6.68-13.33,34.59-12.86,62.35,1.05,27.76,13.91,44.85,35.99,38.17,49.32Z"/>
        <path class="cls-8" d="M1679.38,263.21s19.55,47.9,93.76,56.9c0,0-21.4,11.48-63.26-11.42,0,0-39.42-24.25-30.5-45.48Z"/>
        <path class="cls-8" d="M1712.54,310.02l24.19-48.27s5.36,2.55,8.76,4.48l-24.11,48.12-8.84-4.33Z"/>
        <line class="cls-5" x1="1712.62" y1="309.86" x2="1736.73" y2="261.75"/>
        <line class="cls-5" x1="1745.5" y1="266.24" x2="1721.38" y2="314.36"/>
        <path class="cls-5" d="M1779.9,313.58c-6.68,13.33-34.6,12.86-62.36-1.05-27.76-13.91-44.84-35.99-38.16-49.32,6.68-13.33,34.59-12.86,62.35,1.05,27.76,13.91,44.85,35.99,38.17,49.32Z"/>
      </g>
      <g>
        <path class="cls-1" d="M1958.8,302.41c-.14,.29-.33,.63-.53,1.06-.06,.13-.15,.24-.21,.37v.04s-.04,.06-.04,.06c-.13,.29-.31,.6-.51,.94-.95,1.73-2.37,3.99-4.29,6.64-.14,.22-.29,.38-.46,.58-10.29,13.68-34.71,35.78-85.3,36.95-41.48-50.19-28.39-90.3-24.84-98.85,.44-1.13,.74-1.71,.74-1.71,8.21-18,28.21-26.54,44.59-19.06,13.35,6.1,15.85,30.39,13.44,45.55,0,.19-.03,.34-.06,.48,.09-.12,.22-.21,.36-.35,9.91-10.71,29.2-24.13,42-18.28,15.92,7.27,22.65,26.91,15.54,44.55-.15,.32-.28,.7-.43,1.02Z"/>
        <path class="cls-8" d="M1842.63,250.2s-4.31,77.96,46.1,96.97c0,0-16.63,1.97-21.26,1.88,0,0-43.52-49.49-24.84-98.85Z"/>
        <polyline class="cls-5" points="1945.64 320.25 1914.14 305.87 1913.79 287.54 1883.93 322.75 1889.07 290.49 1867.73 305.42 1868.07 284.84 1838.05 271.14"/>
        <path class="cls-5" d="M1958.8,302.41c-.14,.29-.33,.63-.53,1.06-.06,.13-.15,.24-.21,.37v.04s-.04,.06-.04,.06c-.13,.29-.31,.6-.51,.94-.95,1.73-2.37,3.99-4.29,6.64-.14,.22-.29,.38-.46,.58-10.29,13.68-34.71,35.78-85.3,36.95-41.48-50.19-28.39-90.3-24.84-98.85,.44-1.13,.74-1.71,.74-1.71,8.21-18,28.21-26.54,44.59-19.06,13.35,6.1,15.85,30.39,13.44,45.55,0,.19-.03,.34-.06,.48,.09-.12,.22-.21,.36-.35,9.91-10.71,29.2-24.13,42-18.28,15.92,7.27,22.65,26.91,15.54,44.55-.15,.32-.28,.7-.43,1.02Z"/>
      </g>
      <g>
        <polygon class="cls-1" points="1708.44 90.69 1732.03 109.21 1729.5 112.43 1720.5 105.36 1674.06 164.5 1686.75 174.46 1685.53 176.02 1680.74 172.25 1603.98 269.98 1598.47 265.65 1591.42 274.63 1587.51 271.56 1532.94 341.05 1530.4 339.06 1584.98 269.57 1581.06 266.5 1588.12 257.52 1582.61 253.19 1659.36 155.46 1654.56 151.69 1655.78 150.15 1668.48 160.11 1714.92 100.98 1705.91 93.91 1708.44 90.69"/>
        <polygon class="cls-6" points="1726.97 105.24 1732.03 109.21 1729.5 112.43 1720.5 105.36 1674.06 164.5 1686.75 174.46 1685.53 176.02 1680.74 172.25 1603.98 269.98 1598.47 265.65 1591.42 274.63 1587.51 271.56 1597.07 259.38 1603.83 262.04 1678.42 170.44 1671.31 164.85 1719.37 103.66 1726.97 105.24"/>
        <polygon class="cls-5" points="1532.94 341.05 1587.51 271.56 1591.42 274.63 1598.47 265.65 1603.98 269.98 1680.74 172.25 1685.53 176.02 1686.75 174.46 1674.06 164.5 1716.08 110.99 1720.5 105.36 1729.5 112.43 1732.03 109.21 1708.44 90.69 1705.91 93.91 1714.92 100.98 1695.41 125.81 1668.48 160.11 1655.78 150.15 1654.56 151.69 1659.36 155.46 1653.17 163.35 1582.61 253.19 1588.12 257.52 1581.06 266.5 1584.98 269.57 1530.4 339.06 1532.94 341.05"/>
        <line class="cls-5" x1="1680.74" y1="172.25" x2="1659.36" y2="155.47"/>
        <polyline class="cls-5" points="1598.47 265.65 1593.29 261.58 1588.12 257.52"/>
        <line class="cls-5" x1="1590.16" y1="242.61" x2="1602.11" y2="252"/>
        <line class="cls-5" x1="1603.79" y1="225.25" x2="1615.75" y2="234.64"/>
        <line class="cls-5" x1="1593.57" y1="238.28" x2="1599.55" y2="242.97"/>
        <line class="cls-5" x1="1596.98" y1="233.93" x2="1602.95" y2="238.63"/>
        <line class="cls-5" x1="1600.38" y1="229.6" x2="1606.36" y2="234.29"/>
        <line class="cls-5" x1="1607.2" y1="220.92" x2="1613.17" y2="225.61"/>
        <line class="cls-5" x1="1610.61" y1="216.58" x2="1616.58" y2="221.27"/>
        <line class="cls-5" x1="1614.02" y1="212.24" x2="1619.99" y2="216.94"/>
        <line class="cls-5" x1="1620.83" y1="203.56" x2="1626.81" y2="208.26"/>
        <line class="cls-5" x1="1624.24" y1="199.22" x2="1630.22" y2="203.92"/>
        <line class="cls-5" x1="1627.64" y1="194.89" x2="1633.62" y2="199.58"/>
        <line class="cls-5" x1="1634.46" y1="186.21" x2="1640.43" y2="190.9"/>
        <line class="cls-5" x1="1637.87" y1="181.87" x2="1643.84" y2="186.56"/>
        <line class="cls-5" x1="1641.28" y1="177.53" x2="1647.25" y2="182.22"/>
        <line class="cls-5" x1="1617.42" y1="207.9" x2="1629.37" y2="217.29"/>
        <line class="cls-5" x1="1631.05" y1="190.54" x2="1643.01" y2="199.94"/>
        <line class="cls-5" x1="1644.68" y1="173.19" x2="1656.64" y2="182.58"/>
        <line class="cls-5" x1="1587.51" y1="271.56" x2="1584.98" y2="269.57"/>
      </g>
      <g>
        <path class="cls-1" d="M1865.95,616.69c.22,15.4-12.09,28.07-27.49,28.29-15.4,.22-28.07-12.08-28.29-27.49-.22-15.4,12.09-28.07,27.49-28.29,15.41-.22,28.07,12.08,28.29,27.49Z"/>
        <path class="cls-6" d="M1859.06,635.44c-4.96,5.31-12.38,9.42-20.6,9.54-15.42,.22-28.09-12.09-28.31-27.5-.12-7.7,2.92-14.72,7.9-19.83,0,0-7.54,23.91,9.78,36.48,0,0,3.65,3.72,10.84,4.88l2.8-39.29,.56,39.61c4.58,.17,10.26-.76,17.03-3.9Z"/>
        <line class="cls-5" x1="1834.08" y1="589.25" x2="1834.88" y2="645.03"/>
        <path class="cls-5" d="M1859.32,599.04c4.05,4.77,6.53,10.91,6.63,17.65,.2,14.29-10.39,26.23-24.23,28.05l-.78-55.02"/>
        <path class="cls-5" d="M1865.95,616.69c.22,15.4-12.09,28.07-27.49,28.29-15.4,.22-28.07-12.08-28.29-27.49-.22-15.4,12.09-28.07,27.49-28.29,15.41-.22,28.07,12.08,28.29,27.49Z"/>
      </g>
      <g>
        <path class="cls-1" d="M1830.33,482.41c-8.75,9.66-20.35,14.89-34.52,15.54,.22,30.73-6.19,52.62-19.09,65.07-9.81,9.46-20.09,10.04-22.38,10.04-.27,0-.42,0-.45-.04-12.53-.12-22.69-4.54-30.05-13.13-13.79-16.08-13.82-42.42-12.98-54.38-8.44-1.99-14.74-9.54-14.74-18.6,0-10.53,8.56-19.09,19.09-19.09s19.09,8.56,19.09,19.09c0,9.44-6.83,17.26-15.81,18.79-.73,10.77-.88,35.2,11.15,49.22,5.88,6.87,14.09,10.38,24.48,10.5,.5,0,9.05,.19,17.49-8.1,7.75-7.6,16.84-24.02,16.58-59.37-14.17-.65-25.77-5.88-34.52-15.54-23.45-25.93-18.37-74.43-18.14-76.49,.96-8.24,4.2-14.39,9.63-18.25,5-3.56,10.92-4.47,15.39-4.51,.88-2.29,3.09-3.9,5.69-3.9h2.79c3.39,0,6.14,2.75,6.14,6.18s-2.75,6.15-6.14,6.15h-2.79c-2.86,0-5.27-1.94-5.92-4.58-3.89,.08-8.86,.88-12.98,3.78-4.51,3.21-7.18,8.44-7.98,15.58-.08,.46-5.16,48.84,17.14,73.47,8.75,9.66,20.7,14.51,35.47,14.32,.27,.04,.5,.04,.73,.04,14.55,0,26.24-4.85,34.83-14.36,22.3-24.67,17.22-73.02,17.15-73.51-.81-7.1-3.52-12.37-8.02-15.54-3.55-2.56-7.71-3.47-11.26-3.7-.53,2.86-3.02,5-6.07,5h-2.75c-3.39,0-6.15-2.75-6.15-6.15s2.75-6.18,6.15-6.18h2.75c2.44,0,4.5,1.41,5.5,3.43,4.28,.19,9.5,1.26,14.05,4.47,5.46,3.86,8.67,10,9.63,18.25,.22,2.06,5.3,50.56-18.14,76.49Z"/>
        <path class="cls-6" d="M1699.64,476.16s-2.85,22.61,23.5,28.11c0,0-15.8,4.68-22.44-4.51-8.37-11.58-1.06-23.6-1.06-23.6Z"/>
        <path class="cls-6" d="M1710.85,505.5s-.49,79.82,61.75,60.97c0,0-25.12,18.79-48.76-6.59,0,0-16.5-17.33-12.98-54.38Z"/>
        <path class="cls-5" d="M1830.33,482.41c-8.75,9.66-20.35,14.89-34.52,15.54,.22,30.73-6.19,52.62-19.09,65.07-9.81,9.47-20.09,10.04-22.38,10.04-.27,0-.42,0-.45-.03-12.53-.12-22.69-4.54-30.05-13.14-13.79-16.07-13.82-42.42-12.98-54.38-8.44-1.99-14.74-9.54-14.74-18.6,0-10.53,8.56-19.09,19.09-19.09s19.09,8.56,19.09,19.09c0,9.44-6.83,17.26-15.81,18.79-.73,10.77-.88,35.21,11.15,49.22,5.88,6.87,14.09,10.38,24.48,10.5,.5,0,9.05,.19,17.49-8.1,7.75-7.6,16.84-24.01,16.58-59.37-14.17-.65-25.77-5.88-34.52-15.54-23.45-25.93-18.37-74.43-18.14-76.49,.96-8.24,4.2-14.39,9.63-18.25,5-3.56,10.92-4.47,15.39-4.51,.88-2.29,3.09-3.9,5.69-3.9h2.79c3.39,0,6.14,2.75,6.14,6.18s-2.75,6.15-6.14,6.15h-2.79c-2.86,0-5.27-1.94-5.92-4.58-3.89,.08-8.86,.88-12.98,3.78-4.51,3.21-7.18,8.44-7.98,15.58-.08,.46-5.16,48.84,17.14,73.47,8.75,9.66,20.7,14.51,35.47,14.32,.27,.03,.5,.03,.73,.03,14.55,0,26.24-4.85,34.83-14.36,22.3-24.67,17.22-73.01,17.15-73.51-.81-7.1-3.52-12.37-8.02-15.54-3.55-2.56-7.71-3.47-11.26-3.7-.53,2.86-3.02,5-6.07,5h-2.75c-3.39,0-6.15-2.75-6.15-6.15s2.75-6.18,6.15-6.18h2.75c2.44,0,4.5,1.41,5.5,3.43,4.28,.19,9.5,1.27,14.05,4.47,5.46,3.86,8.67,10.01,9.63,18.25,.22,2.06,5.3,50.56-18.14,76.49Z"/>
        <line class="cls-5" x1="1710.85" y1="505.51" x2="1718.48" y2="505.7"/>
        <circle class="cls-5" cx="1715.72" cy="486.05" r="11.35"/>
        <line class="cls-5" x1="1760.53" y1="383.16" x2="1760.29" y2="387.02"/>
        <line class="cls-5" x1="1824.79" y1="383.2" x2="1825.36" y2="387.09"/>
      </g>
      <g>
        <path class="cls-1" d="M1973.38,517.11c0,7.42-4.85,13.44-10.81,13.44h-39.01v39.03c0,5.96-6.04,10.79-13.46,10.79-3.73,0-7.07-1.21-9.52-3.16-2.44-1.96-3.94-4.65-3.94-7.63v-39.03h-39.03c-2.98,0-5.67-1.5-7.64-3.95-1.94-2.42-3.16-5.78-3.16-9.49,0-7.44,4.83-13.46,10.79-13.46h39.03v-39.04c0-5.96,6.02-10.79,13.46-10.79,3.71,0,7.07,1.21,9.51,3.16,2.45,1.96,3.95,4.65,3.95,7.63v39.04h39.01c2.98,0,5.67,1.5,7.63,3.94,1.96,2.42,3.17,5.81,3.17,9.52Z"/>
        <path class="cls-8" d="M1849.97,526.61h53.4v52.32s-7.76-2.46-6.64-14.77l-.1-33.6h-34.57s-7.72,1.59-12.1-3.95Z"/>
        <path class="cls-8" d="M1896.64,503.65h6.74v-48.37s-6.74,3.1-6.74,9.33v39.04Z"/>
        <path class="cls-5" d="M1973.38,517.11c0,7.42-4.85,13.44-10.81,13.44h-39.01v39.03c0,5.96-6.04,10.79-13.46,10.79-3.73,0-7.07-1.21-9.52-3.16-2.44-1.96-3.94-4.65-3.94-7.63v-39.03h-39.03c-2.98,0-5.67-1.5-7.64-3.95-1.94-2.42-3.16-5.78-3.16-9.49,0-7.44,4.83-13.46,10.79-13.46h39.03v-39.04c0-5.96,6.02-10.79,13.46-10.79,3.71,0,7.07,1.21,9.51,3.16,2.45,1.96,3.95,4.65,3.95,7.63v39.04h39.01c2.98,0,5.67,1.5,7.63,3.94,1.96,2.42,3.17,5.81,3.17,9.52Z"/>
      </g>
      <g>
        <polygon class="cls-1" points="2012.86 561.37 2036.45 579.89 2033.91 583.11 2024.91 576.04 1978.47 635.17 1991.17 645.14 1989.94 646.7 1985.15 642.93 1908.4 740.66 1902.89 736.33 1895.83 745.31 1891.92 742.24 1837.35 811.73 1834.82 809.74 1889.39 740.25 1885.48 737.17 1892.53 728.2 1887.03 723.87 1963.77 626.14 1958.98 622.37 1960.2 620.83 1972.89 630.79 2019.33 571.66 2010.33 564.59 2012.86 561.37"/>
        <polygon class="cls-6" points="2031.39 575.92 2036.45 579.89 2033.91 583.11 2024.91 576.04 1978.47 635.17 1991.17 645.14 1989.94 646.7 1985.15 642.93 1908.4 740.66 1902.89 736.33 1895.83 745.31 1891.92 742.24 1901.49 730.06 1908.24 732.72 1982.83 641.11 1975.73 635.53 2023.78 574.34 2031.39 575.92"/>
        <polygon class="cls-5" points="1837.35 811.73 1891.92 742.24 1895.83 745.31 1902.89 736.33 1908.4 740.66 1985.15 642.93 1989.94 646.7 1991.17 645.14 1978.47 635.17 2020.5 581.67 2024.91 576.04 2033.91 583.11 2036.45 579.89 2012.86 561.37 2010.33 564.59 2019.33 571.66 1999.83 596.49 1972.89 630.79 1960.2 620.83 1958.98 622.37 1963.77 626.14 1957.58 634.03 1887.03 723.87 1892.53 728.2 1885.48 737.17 1889.39 740.25 1834.82 809.74 1837.35 811.73"/>
        <polyline class="cls-5" points="1902.89 736.33 1897.71 732.26 1892.53 728.2"/>
        <line class="cls-5" x1="1894.57" y1="713.29" x2="1906.53" y2="722.68"/>
        <line class="cls-5" x1="1908.21" y1="695.93" x2="1920.16" y2="705.32"/>
        <line class="cls-5" x1="1897.98" y1="708.95" x2="1903.96" y2="713.65"/>
        <line class="cls-5" x1="1901.39" y1="704.61" x2="1907.37" y2="709.3"/>
        <line class="cls-5" x1="1904.8" y1="700.27" x2="1910.77" y2="704.97"/>
        <line class="cls-5" x1="1911.61" y1="691.6" x2="1917.59" y2="696.29"/>
        <line class="cls-5" x1="1915.02" y1="687.26" x2="1921" y2="691.95"/>
        <line class="cls-5" x1="1918.43" y1="682.92" x2="1924.41" y2="687.62"/>
        <line class="cls-5" x1="1891.92" y1="742.24" x2="1889.39" y2="740.25"/>
      </g>
      <g>
        <path class="cls-1" d="M1935.26,894.33c4.65,9.75,.52,21.44-9.24,26.09-9.76,4.66-21.44,.52-26.09-9.23-4.66-9.75-.52-21.44,9.24-26.09,9.76-4.66,21.44-.52,26.1,9.23Z"/>
        <path class="cls-6" d="M1936.36,908.3c-1.61,4.84-5.13,9.64-10.34,12.12-9.77,4.66-21.45,.52-26.11-9.24-2.33-4.88-2.46-10.24-.78-14.96,0,0,2.2,17.45,16.93,20.39,0,0,3.42,1.3,8.34-.06l-9.73-25.87,11.97,25.09c2.97-1.24,6.32-3.49,9.71-7.48Z"/>
        <line class="cls-5" x1="1906.89" y1="886.18" x2="1923.75" y2="921.5"/>
        <path class="cls-5" d="M1925.86,885.02c3.98,1.85,7.36,5.05,9.4,9.32,4.32,9.05,1.07,19.77-7.23,24.99l-16.63-34.85"/>
        <path class="cls-5" d="M1935.26,894.33c4.65,9.75,.52,21.44-9.24,26.09-9.76,4.66-21.44,.52-26.09-9.23-4.66-9.75-.52-21.44,9.24-26.09,9.76-4.66,21.44-.52,26.1,9.23Z"/>
      </g>
      <g>
        <path class="cls-1" d="M1905.69,1094.12c3.49,13.09-4.28,26.48-17.36,29.97-13.06,3.48-26.45-4.29-29.94-17.37-2.67-10.04,1.29-20.31,9.21-26.08l-33.17-124.55c-1.12-4.2,1.81-8.64,6.52-9.9,2.36-.63,4.76-.35,6.67,.62,1.9,.94,3.39,2.62,3.94,4.7l33.18,124.58c9.74,1.07,18.28,7.99,20.95,18.02Z"/>
        <path class="cls-8" d="M1840.95,946.19c-2.82,.98-7.64,5.7-6.52,9.9l33.17,124.55c-7.91,5.77-11.88,16.05-9.21,26.08,3.49,13.08,16.88,20.84,29.94,17.37,13.08-3.49,20.85-16.88,17.36-29.97-.21-.81-.47-1.59-.76-2.35,0,0-1.95,21.31-18.32,25.81,0,0-16.84,4.04-22.5-12,0,0-2.32-18.88,9.21-20.54l-33.03-128.68s-.88-2.95,.67-10.17Z"/>
        <line class="cls-5" x1="1881.77" y1="1065.99" x2="1873.46" y2="1068.2"/>
        <line class="cls-5" x1="1853.61" y1="960.27" x2="1845.3" y2="962.48"/>
        <line class="cls-5" x1="1858.3" y1="977.89" x2="1849.99" y2="980.1"/>
        <line class="cls-5" x1="1863" y1="995.51" x2="1854.69" y2="997.72"/>
        <line class="cls-5" x1="1867.69" y1="1013.13" x2="1859.38" y2="1015.34"/>
        <line class="cls-5" x1="1872.38" y1="1030.75" x2="1864.07" y2="1032.96"/>
        <line class="cls-5" x1="1877.07" y1="1048.37" x2="1868.76" y2="1050.58"/>
        <path class="cls-5" d="M1905.73,1094.12c3.49,13.09-4.28,26.48-17.36,29.97-13.06,3.48-26.45-4.29-29.94-17.37-2.67-10.04,1.29-20.31,9.21-26.08l-33.17-124.55c-1.12-4.2,1.81-8.64,6.52-9.9,2.36-.63,4.76-.35,6.67,.62,1.9,.94,3.39,2.62,3.94,4.7l33.18,124.58c9.74,1.07,18.28,7.99,20.95,18.02Z"/>
      </g>
      <g>
        <path class="cls-1" d="M1684.38,48.55c0,6.88-5.58,12.46-12.46,12.46h-61.28c-6.88,0-12.46-5.58-12.46-12.46v-12.46c0-6.88,5.58-12.46,12.46-12.46h61.28c6.88,0,12.46,5.58,12.46,12.46v12.46Z"/>
        <rect class="cls-6" x="1637.39" y="23.63" width="7.79" height="37.39"/>
        <path class="cls-6" d="M1598.19,42.32s0,24.19,84.75,12.06c0,0-2,7.99-19.3,6.64h-52.99s-12.97,2.39-12.46-18.69Z"/>
        <line class="cls-5" x1="1645.18" y1="23.63" x2="1645.18" y2="61.02"/>
        <line class="cls-5" x1="1637.39" y1="23.63" x2="1637.39" y2="61.02"/>
        <path class="cls-5" d="M1684.38,48.58c0,6.89-5.58,12.47-12.46,12.47h-61.28c-6.88,0-12.46-5.58-12.46-12.47v-12.46c0-6.89,5.58-12.46,12.46-12.46h61.28c6.88,0,12.46,5.58,12.46,12.46v12.46Z"/>
      </g>
      <g>
        <path class="cls-1" d="M1459.43,75.68c-.14,.29-.33,.63-.53,1.06-.06,.13-.15,.24-.21,.37v.04s-.04,.06-.04,.06c-.13,.29-.31,.6-.51,.94-.95,1.73-2.37,3.99-4.29,6.64-.14,.22-.29,.38-.46,.58-10.29,13.68-34.71,35.78-85.3,36.95-41.48-50.19-28.39-90.3-24.84-98.85,.44-1.13,.74-1.71,.74-1.71,8.21-18,28.21-26.54,44.59-19.06,13.35,6.1,15.85,30.39,13.44,45.55,0,.19-.03,.34-.06,.48,.09-.12,.22-.22,.36-.35,9.91-10.71,29.2-24.13,42-18.28,15.92,7.26,22.65,26.91,15.54,44.55-.15,.32-.28,.7-.43,1.02Z"/>
        <path class="cls-8" d="M1343.26,23.47s-4.31,77.96,46.1,96.97c0,0-16.63,1.97-21.26,1.88,0,0-43.52-49.49-24.84-98.85Z"/>
        <polyline class="cls-5" points="1446.27 93.52 1414.78 79.15 1414.42 60.81 1384.56 96.02 1389.71 63.76 1368.37 78.69 1368.7 58.11 1338.69 44.41"/>
        <path class="cls-5" d="M1459.43,75.68c-.14,.29-.33,.63-.53,1.06-.06,.13-.15,.24-.21,.37v.04s-.04,.06-.04,.06c-.13,.29-.31,.6-.51,.94-.95,1.73-2.37,3.99-4.29,6.64-.14,.22-.29,.38-.46,.58-10.29,13.68-34.71,35.78-85.3,36.95-41.48-50.19-28.39-90.3-24.84-98.85,.44-1.13,.74-1.71,.74-1.71,8.21-18,28.21-26.54,44.59-19.06,13.35,6.1,15.85,30.39,13.44,45.55,0,.19-.03,.34-.06,.48,.09-.12,.22-.22,.36-.35,9.91-10.71,29.2-24.13,42-18.28,15.92,7.26,22.65,26.91,15.54,44.55-.15,.32-.28,.7-.43,1.02Z"/>
      </g>
      <g>
        <path class="cls-1" d="M1240.33,28.55c4.65,9.75,.52,21.44-9.24,26.09-9.76,4.66-21.44,.52-26.09-9.23-4.66-9.75-.52-21.44,9.24-26.09,9.76-4.66,21.44-.52,26.1,9.23Z"/>
        <path class="cls-6" d="M1241.43,42.53c-1.61,4.84-5.13,9.64-10.34,12.12-9.77,4.66-21.45,.52-26.11-9.24-2.33-4.88-2.46-10.24-.78-14.96,0,0,2.2,17.45,16.93,20.39,0,0,3.42,1.3,8.34-.06l-9.73-25.87,11.97,25.09c2.97-1.24,6.32-3.49,9.71-7.48Z"/>
        <line class="cls-5" x1="1211.96" y1="20.4" x2="1228.83" y2="55.73"/>
        <path class="cls-5" d="M1230.93,19.24c3.98,1.85,7.36,5.05,9.4,9.32,4.32,9.05,1.07,19.77-7.23,24.99l-16.63-34.85"/>
        <path class="cls-5" d="M1240.33,28.55c4.65,9.75,.52,21.44-9.24,26.09-9.76,4.66-21.44,.52-26.09-9.23-4.66-9.75-.52-21.44,9.24-26.09,9.76-4.66,21.44-.52,26.1,9.23Z"/>
      </g>
      <g>
        <path class="cls-1" d="M1594.49,126.57c0,7.42-4.85,13.44-10.81,13.44h-39.01v39.04c0,5.96-6.04,10.78-13.46,10.78-3.73,0-7.07-1.21-9.52-3.16-2.44-1.96-3.94-4.65-3.94-7.63v-39.04h-39.03c-2.98,0-5.67-1.5-7.64-3.94-1.94-2.42-3.16-5.78-3.16-9.5,0-7.44,4.83-13.46,10.79-13.46h39.03v-39.04c0-5.96,6.02-10.78,13.46-10.78,3.71,0,7.07,1.21,9.51,3.16,2.45,1.96,3.95,4.65,3.95,7.63v39.04h39.01c2.98,0,5.67,1.5,7.63,3.94,1.96,2.42,3.17,5.81,3.17,9.52Z"/>
        <path class="cls-8" d="M1471.08,136.07h53.4v52.32s-7.76-2.46-6.64-14.77l-.1-33.6h-34.57s-7.72,1.59-12.1-3.94Z"/>
        <path class="cls-8" d="M1517.75,113.11h6.74v-48.37s-6.74,3.1-6.74,9.33v39.04Z"/>
        <path class="cls-5" d="M1594.49,126.57c0,7.42-4.85,13.44-10.81,13.44h-39.01v39.04c0,5.96-6.04,10.78-13.46,10.78-3.73,0-7.07-1.21-9.52-3.16-2.44-1.96-3.94-4.65-3.94-7.63v-39.04h-39.03c-2.98,0-5.67-1.5-7.64-3.94-1.94-2.42-3.16-5.78-3.16-9.5,0-7.44,4.83-13.46,10.79-13.46h39.03v-39.04c0-5.96,6.02-10.78,13.46-10.78,3.71,0,7.07,1.21,9.51,3.16,2.45,1.96,3.95,4.65,3.95,7.63v39.04h39.01c2.98,0,5.67,1.5,7.63,3.94,1.96,2.42,3.17,5.81,3.17,9.52Z"/>
      </g>
      <g>
        <path class="cls-1" d="M1977.21,54.61c-8.75,9.66-20.35,14.89-34.52,15.54,.22,30.73-6.19,52.62-19.09,65.07-9.82,9.46-20.09,10.04-22.38,10.04-.27,0-.42,0-.45-.04-12.53-.12-22.69-4.54-30.05-13.13-13.79-16.08-13.82-42.42-12.98-54.38-8.44-1.98-14.74-9.54-14.74-18.6,0-10.53,8.56-19.09,19.09-19.09s19.09,8.56,19.09,19.09c0,9.43-6.83,17.26-15.81,18.79-.73,10.77-.88,35.2,11.15,49.22,5.88,6.87,14.09,10.39,24.48,10.5,.5,0,9.05,.19,17.49-8.1,7.75-7.6,16.84-24.02,16.58-59.37-14.17-.65-25.77-5.88-34.52-15.54-23.45-25.93-18.37-74.43-18.14-76.49,.96-8.24,4.2-14.39,9.62-18.25,5-3.56,10.92-4.47,15.39-4.51,.88-2.29,3.09-3.9,5.69-3.9h2.79c3.39,0,6.14,2.75,6.14,6.18s-2.75,6.15-6.14,6.15h-2.79c-2.86,0-5.27-1.94-5.92-4.58-3.89,.08-8.86,.88-12.98,3.78-4.51,3.21-7.18,8.44-7.98,15.58-.08,.46-5.16,48.84,17.14,73.47,8.75,9.66,20.7,14.5,35.47,14.32,.27,.04,.5,.04,.73,.04,14.55,0,26.24-4.85,34.83-14.36,22.3-24.68,17.22-73.02,17.15-73.51-.81-7.1-3.52-12.37-8.02-15.54-3.55-2.56-7.71-3.47-11.26-3.7-.53,2.86-3.02,5-6.07,5h-2.75c-3.39,0-6.15-2.75-6.15-6.15s2.75-6.18,6.15-6.18h2.75c2.44,0,4.5,1.41,5.5,3.43,4.28,.19,9.5,1.26,14.05,4.47,5.46,3.86,8.67,10,9.63,18.25,.22,2.06,5.3,50.56-18.14,76.49Z"/>
        <path class="cls-6" d="M1846.52,48.37s-2.85,22.62,23.5,28.11c0,0-15.8,4.68-22.44-4.51-8.37-11.58-1.06-23.6-1.06-23.6Z"/>
        <path class="cls-6" d="M1857.73,77.71s-.49,79.82,61.75,60.97c0,0-25.12,18.79-48.76-6.59,0,0-16.5-17.33-12.98-54.38Z"/>
        <path class="cls-5" d="M1977.21,54.62c-8.75,9.66-20.35,14.89-34.52,15.54,.22,30.73-6.19,52.62-19.09,65.07-9.82,9.47-20.09,10.04-22.38,10.04-.27,0-.42,0-.45-.03-12.53-.12-22.69-4.54-30.05-13.14-13.79-16.07-13.82-42.42-12.98-54.38-8.44-1.99-14.74-9.54-14.74-18.6,0-10.53,8.56-19.09,19.09-19.09s19.09,8.56,19.09,19.09c0,9.44-6.83,17.26-15.81,18.79-.73,10.77-.88,35.21,11.15,49.22,5.88,6.87,14.09,10.38,24.48,10.5,.5,0,9.05,.19,17.49-8.1,7.75-7.6,16.84-24.01,16.58-59.37-14.17-.65-25.77-5.88-34.52-15.54-23.45-25.93-18.37-74.43-18.14-76.49,.96-8.24,4.2-14.39,9.62-18.25,5-3.56,10.92-4.47,15.39-4.51,.88-2.29,3.09-3.9,5.69-3.9h2.79c3.39,0,6.14,2.75,6.14,6.18s-2.75,6.15-6.14,6.15h-2.79c-2.86,0-5.27-1.94-5.92-4.58-3.89,.08-8.86,.88-12.98,3.78-4.51,3.21-7.18,8.44-7.98,15.58-.08,.46-5.16,48.84,17.14,73.47,8.75,9.66,20.7,14.51,35.47,14.32,.27,.03,.5,.03,.73,.03,14.55,0,26.24-4.85,34.83-14.36,22.3-24.67,17.22-73.01,17.15-73.51-.81-7.1-3.52-12.37-8.02-15.54-3.55-2.56-7.71-3.47-11.26-3.7-.53,2.86-3.02,5-6.07,5h-2.75c-3.39,0-6.15-2.75-6.15-6.15s2.75-6.18,6.15-6.18h2.75c2.44,0,4.5,1.41,5.5,3.43,4.28,.19,9.5,1.27,14.05,4.47,5.46,3.86,8.67,10.01,9.63,18.25,.22,2.06,5.3,50.56-18.14,76.49Z"/>
        <line class="cls-5" x1="1857.73" y1="77.72" x2="1865.37" y2="77.91"/>
        <path class="cls-5" d="M1873.96,58.26c0,6.27-5.08,11.35-11.35,11.35s-11.35-5.08-11.35-11.35,5.08-11.35,11.35-11.35,11.35,5.08,11.35,11.35Z"/>
      </g>
      <g>
        <path class="cls-1" d="M1799.45,66.39c3.49,13.09-4.28,26.48-17.36,29.97-13.06,3.48-26.45-4.29-29.94-17.37-2.67-10.04,1.29-20.31,9.21-26.08l-33.17-124.55c-1.12-4.2,1.81-8.64,6.52-9.9,2.36-.63,4.76-.35,6.67,.62,1.9,.94,3.39,2.62,3.94,4.7l33.18,124.58c9.74,1.07,18.28,7.99,20.95,18.02Z"/>
        <path class="cls-8" d="M1734.71-81.54c-2.82,.98-7.64,5.7-6.52,9.9l33.17,124.55c-7.91,5.77-11.88,16.05-9.21,26.08,3.49,13.08,16.88,20.84,29.94,17.37,13.08-3.49,20.85-16.88,17.36-29.97-.21-.81-.47-1.59-.76-2.35,0,0-1.95,21.31-18.32,25.81,0,0-16.84,4.04-22.51-12,0,0-2.32-18.88,9.21-20.54l-33.03-128.68s-.88-2.95,.67-10.17Z"/>
        <line class="cls-5" x1="1775.52" y1="38.26" x2="1767.22" y2="40.47"/>
        <line class="cls-5" x1="1766.14" y1="3.02" x2="1757.83" y2="5.24"/>
        <line class="cls-5" x1="1770.83" y1="20.64" x2="1762.52" y2="22.86"/>
        <path class="cls-5" d="M1799.49,66.39c3.49,13.09-4.28,26.48-17.36,29.97-13.06,3.48-26.45-4.29-29.94-17.37-2.67-10.04,1.29-20.31,9.21-26.08l-33.17-124.55c-1.12-4.2,1.81-8.64,6.52-9.9,2.36-.63,4.76-.35,6.67,.62,1.9,.94,3.39,2.62,3.94,4.7l33.18,124.58c9.74,1.07,18.28,7.99,20.95,18.02Z"/>
      </g>
      <g>
        <path class="cls-1" d="M1070.73,20.62c0,6.88-5.58,12.46-12.46,12.46h-61.28c-6.88,0-12.46-5.58-12.46-12.46V8.16c0-6.89,5.58-12.46,12.46-12.46h61.28c6.88,0,12.46,5.58,12.46,12.46v12.46Z"/>
        <rect class="cls-6" x="1023.73" y="-4.31" width="7.79" height="37.39"/>
        <path class="cls-6" d="M984.53,14.39s0,24.19,84.75,12.06c0,0-2,7.99-19.3,6.64h-52.99s-12.97,2.39-12.46-18.69Z"/>
        <line class="cls-5" x1="1031.52" y1="-4.31" x2="1031.52" y2="33.08"/>
        <line class="cls-5" x1="1023.73" y1="-4.31" x2="1023.73" y2="33.08"/>
        <path class="cls-5" d="M1070.73,20.64c0,6.89-5.58,12.47-12.46,12.47h-61.28c-6.88,0-12.46-5.58-12.46-12.47V8.18c0-6.89,5.58-12.46,12.46-12.46h61.28c6.88,0,12.46,5.58,12.46,12.46v12.46Z"/>
      </g>
      <g>
        <path class="cls-1" d="M770.67,23.94c-6.68,13.33-34.6,12.86-62.36-1.05-27.76-13.91-44.84-35.99-38.16-49.32,6.68-13.33,34.59-12.86,62.35,1.05,27.76,13.91,44.85,35.99,38.17,49.32Z"/>
        <path class="cls-8" d="M670.15-26.44s19.55,47.9,93.76,56.91c0,0-21.4,11.48-63.26-11.42,0,0-39.42-24.25-30.5-45.48Z"/>
        <path class="cls-8" d="M703.31,20.38l24.19-48.27s5.36,2.55,8.76,4.48l-24.11,48.12-8.84-4.33Z"/>
        <line class="cls-5" x1="703.39" y1="20.22" x2="727.5" y2="-27.89"/>
        <line class="cls-5" x1="736.26" y1="-23.41" x2="712.15" y2="24.71"/>
        <path class="cls-5" d="M770.67,23.94c-6.68,13.33-34.6,12.86-62.36-1.05-27.76-13.91-44.84-35.99-38.16-49.32,6.68-13.33,34.59-12.86,62.35,1.05,27.76,13.91,44.85,35.99,38.17,49.32Z"/>
      </g>
      <g>
        <path class="cls-1" d="M934.54,30.83c-.13,.29-.33,.63-.53,1.06-.06,.14-.15,.24-.21,.37v.04s-.04,.06-.04,.06c-.13,.29-.31,.6-.51,.94-.95,1.73-2.37,3.99-4.29,6.64-.14,.22-.29,.38-.46,.58-10.29,13.68-34.71,35.78-85.3,36.95-41.48-50.19-28.39-90.3-24.84-98.85,.44-1.13,.74-1.71,.74-1.71,8.21-18,28.21-26.54,44.59-19.06,13.35,6.1,15.85,30.39,13.44,45.55,0,.19-.03,.34-.06,.48,.09-.12,.22-.22,.36-.35,9.91-10.71,29.2-24.13,42-18.28,15.92,7.26,22.65,26.91,15.54,44.55-.15,.32-.28,.7-.43,1.02Z"/>
        <path class="cls-8" d="M818.37-21.37s-4.31,77.96,46.1,96.97c0,0-16.63,1.97-21.26,1.88,0,0-43.52-49.49-24.84-98.85Z"/>
        <polyline class="cls-5" points="921.38 48.67 889.89 34.3 889.53 15.96 859.67 51.18 864.82 18.92 843.48 33.84 843.81 13.27 813.8 -.44"/>
        <path class="cls-5" d="M934.54,30.83c-.13,.29-.33,.63-.53,1.06-.06,.14-.15,.24-.21,.37v.04s-.04,.06-.04,.06c-.13,.29-.31,.6-.51,.94-.95,1.73-2.37,3.99-4.29,6.64-.14,.22-.29,.38-.46,.58-10.29,13.68-34.71,35.78-85.3,36.95-41.48-50.19-28.39-90.3-24.84-98.85,.44-1.13,.74-1.71,.74-1.71,8.21-18,28.21-26.54,44.59-19.06,13.35,6.1,15.85,30.39,13.44,45.55,0,.19-.03,.34-.06,.48,.09-.12,.22-.22,.36-.35,9.91-10.71,29.2-24.13,42-18.28,15.92,7.26,22.65,26.91,15.54,44.55-.15,.32-.28,.7-.43,1.02Z"/>
      </g>
      <g>
        <polygon class="cls-1" points="664.79 -171.55 688.38 -153.03 685.85 -149.81 676.84 -156.88 630.41 -97.75 643.1 -87.78 641.88 -86.22 637.08 -89.99 560.33 7.74 554.82 3.41 547.77 12.39 543.86 9.32 489.28 78.81 486.75 76.82 541.32 7.33 537.41 4.25 544.46 -4.72 538.96 -9.05 615.7 -106.78 610.91 -110.55 612.13 -112.09 624.82 -102.13 671.26 -161.26 662.26 -168.33 664.79 -171.55"/>
        <polygon class="cls-6" points="683.32 -157 688.38 -153.03 685.85 -149.81 676.84 -156.88 630.41 -97.75 643.1 -87.78 641.88 -86.22 637.08 -89.99 560.33 7.74 554.82 3.41 547.77 12.39 543.86 9.32 553.42 -2.86 560.18 -.2 634.77 -91.81 627.66 -97.39 675.72 -158.58 683.32 -157"/>
        <polygon class="cls-5" points="489.28 78.81 543.86 9.32 547.77 12.39 554.82 3.41 560.33 7.74 637.08 -89.99 641.88 -86.22 643.1 -87.78 630.41 -97.75 672.43 -151.25 676.84 -156.88 685.85 -149.81 688.38 -153.03 664.79 -171.55 662.26 -168.33 671.26 -161.26 651.76 -136.43 624.82 -102.13 612.13 -112.09 610.91 -110.55 615.7 -106.78 609.52 -98.89 538.96 -9.05 544.46 -4.72 537.41 4.25 541.32 7.33 486.75 76.82 489.28 78.81"/>
        <polyline class="cls-5" points="554.82 3.41 549.64 -.66 544.46 -4.72"/>
        <line class="cls-5" x1="543.86" y1="9.32" x2="541.32" y2="7.33"/>
      </g>
      <g>
        <path class="cls-1" d="M621.51,50.21c4.65,9.75,.52,21.44-9.24,26.09-9.76,4.66-21.44,.52-26.09-9.23-4.66-9.75-.52-21.44,9.24-26.09,9.76-4.66,21.44-.52,26.1,9.23Z"/>
        <path class="cls-6" d="M622.62,64.18c-1.61,4.84-5.13,9.64-10.34,12.12-9.77,4.66-21.45,.52-26.11-9.24-2.33-4.88-2.46-10.24-.78-14.96,0,0,2.2,17.45,16.93,20.39,0,0,3.42,1.3,8.34-.06l-9.73-25.87,11.97,25.09c2.97-1.24,6.32-3.49,9.71-7.48Z"/>
        <line class="cls-5" x1="593.15" y1="42.06" x2="610.01" y2="77.38"/>
        <path class="cls-5" d="M612.11,40.9c3.98,1.85,7.36,5.05,9.4,9.32,4.32,9.05,1.07,19.77-7.23,24.99l-16.63-34.85"/>
        <path class="cls-5" d="M621.51,50.21c4.65,9.75,.52,21.44-9.24,26.09-9.76,4.66-21.44,.52-26.09-9.23-4.66-9.75-.52-21.44,9.24-26.09,9.76-4.66,21.44-.52,26.1,9.23Z"/>
      </g>
      <g>
        <path class="cls-1" d="M334.13,193.14c3.49,13.09-4.28,26.48-17.36,29.97-13.06,3.48-26.45-4.29-29.94-17.37-2.67-10.04,1.29-20.31,9.21-26.08l-33.17-124.55c-1.12-4.2,1.81-8.64,6.52-9.9,2.36-.63,4.76-.35,6.67,.62,1.9,.95,3.39,2.62,3.94,4.7l33.18,124.58c9.74,1.07,18.28,7.99,20.95,18.02Z"/>
        <path class="cls-8" d="M269.39,45.2c-2.82,.98-7.64,5.7-6.52,9.9l33.17,124.55c-7.91,5.77-11.88,16.05-9.21,26.08,3.49,13.08,16.88,20.84,29.94,17.37,13.08-3.49,20.85-16.88,17.36-29.97-.21-.81-.47-1.59-.76-2.35,0,0-1.95,21.31-18.32,25.81,0,0-16.84,4.04-22.51-12,0,0-2.32-18.88,9.21-20.54l-33.03-128.68s-.88-2.95,.67-10.17Z"/>
        <line class="cls-5" x1="310.21" y1="165" x2="301.9" y2="167.22"/>
        <line class="cls-5" x1="282.05" y1="59.28" x2="273.74" y2="61.5"/>
        <line class="cls-5" x1="286.75" y1="76.9" x2="278.43" y2="79.11"/>
        <line class="cls-5" x1="291.44" y1="94.52" x2="283.13" y2="96.74"/>
        <line class="cls-5" x1="296.13" y1="112.14" x2="287.82" y2="114.36"/>
        <line class="cls-5" x1="300.82" y1="129.77" x2="292.51" y2="131.98"/>
        <line class="cls-5" x1="305.51" y1="147.39" x2="297.2" y2="149.6"/>
        <path class="cls-5" d="M334.17,193.14c3.49,13.09-4.28,26.48-17.36,29.97-13.06,3.48-26.45-4.29-29.94-17.37-2.67-10.04,1.29-20.31,9.21-26.08l-33.17-124.55c-1.12-4.2,1.81-8.64,6.52-9.9,2.36-.63,4.76-.35,6.67,.62,1.9,.95,3.39,2.62,3.94,4.7l33.18,124.58c9.74,1.07,18.28,7.99,20.95,18.02Z"/>
      </g>
      <g>
        <path class="cls-1" d="M1009,1045.95h61.27c6.88,0,12.46,5.58,12.46,12.46v12.46c0,6.88-5.58,12.46-12.46,12.46h-61.27c-6.88,0-12.46-5.58-12.46-12.46v-12.46c0-6.88,5.58-12.46,12.46-12.46Z"/>
        <rect class="cls-6" x="1035.74" y="1045.95" width="7.79" height="37.39"/>
        <path class="cls-6" d="M996.53,1064.64s0,24.19,84.75,12.06c0,0-2,7.99-19.3,6.64h-52.99s-12.97,2.39-12.46-18.69Z"/>
        <line class="cls-5" x1="1043.53" y1="1045.95" x2="1043.53" y2="1083.34"/>
        <line class="cls-5" x1="1035.74" y1="1045.95" x2="1035.74" y2="1083.34"/>
        <path class="cls-5" d="M1082.73,1070.9c0,6.89-5.58,12.47-12.46,12.47h-61.28c-6.88,0-12.46-5.58-12.46-12.47v-12.46c0-6.89,5.58-12.46,12.46-12.46h61.28c6.88,0,12.46,5.58,12.46,12.46v12.46Z"/>
      </g>
      <g>
        <path class="cls-1" d="M924.56,1050.62c4.65,9.75,.52,21.44-9.24,26.09-9.76,4.66-21.44,.52-26.09-9.23-4.66-9.75-.52-21.44,9.24-26.09,9.76-4.66,21.44-.52,26.1,9.23Z"/>
        <path class="cls-6" d="M925.67,1064.6c-1.61,4.84-5.13,9.64-10.34,12.12-9.77,4.66-21.45,.52-26.11-9.24-2.33-4.88-2.46-10.24-.78-14.96,0,0,2.2,17.45,16.93,20.39,0,0,3.42,1.3,8.34-.06l-9.73-25.87,11.97,25.09c2.97-1.24,6.32-3.49,9.71-7.48Z"/>
        <line class="cls-5" x1="896.2" y1="1042.47" x2="913.06" y2="1077.8"/>
        <path class="cls-5" d="M915.16,1041.31c3.98,1.85,7.36,5.05,9.4,9.32,4.32,9.05,1.07,19.77-7.23,24.99l-16.63-34.85"/>
        <path class="cls-5" d="M924.56,1050.62c4.65,9.75,.52,21.44-9.24,26.09-9.76,4.66-21.44,.52-26.09-9.23-4.66-9.75-.52-21.44,9.24-26.09,9.76-4.66,21.44-.52,26.1,9.23Z"/>
      </g>
      <g>
        <path class="cls-1" d="M741.49,1027.9h61.27c6.88,0,12.46,5.58,12.46,12.46v12.46c0,6.88-5.58,12.46-12.46,12.46h-61.27c-6.88,0-12.46-5.58-12.46-12.46v-12.46c0-6.88,5.58-12.46,12.46-12.46Z"/>
        <rect class="cls-6" x="768.23" y="1027.9" width="7.79" height="37.39"/>
        <path class="cls-6" d="M729.03,1046.59s0,24.19,84.75,12.06c0,0-2,7.99-19.3,6.64h-52.99s-12.97,2.39-12.46-18.69Z"/>
        <line class="cls-5" x1="776.02" y1="1027.9" x2="776.02" y2="1065.29"/>
        <line class="cls-5" x1="768.23" y1="1027.9" x2="768.23" y2="1065.29"/>
        <path class="cls-5" d="M815.22,1052.85c0,6.89-5.58,12.47-12.46,12.47h-61.28c-6.88,0-12.46-5.58-12.46-12.47v-12.46c0-6.89,5.58-12.46,12.46-12.46h61.28c6.88,0,12.46,5.58,12.46,12.46v12.46Z"/>
      </g>
      <g>
        <path class="cls-1" d="M333.15,988c-6.68,13.33-34.6,12.86-62.36-1.05-27.76-13.91-44.84-35.99-38.16-49.32,6.68-13.33,34.59-12.86,62.35,1.05,27.76,13.91,44.85,35.99,38.17,49.32Z"/>
        <path class="cls-8" d="M232.63,937.62s19.55,47.9,93.76,56.91c0,0-21.4,11.48-63.26-11.42,0,0-39.42-24.25-30.5-45.48Z"/>
        <path class="cls-8" d="M265.79,984.44l24.19-48.27s5.36,2.55,8.76,4.48l-24.11,48.12-8.84-4.33Z"/>
        <line class="cls-5" x1="265.87" y1="984.28" x2="289.98" y2="936.17"/>
        <line class="cls-5" x1="298.75" y1="940.65" x2="274.63" y2="988.77"/>
        <path class="cls-5" d="M333.15,988c-6.68,13.33-34.6,12.86-62.36-1.05-27.76-13.91-44.84-35.99-38.16-49.32,6.68-13.33,34.59-12.86,62.35,1.05,27.76,13.91,44.85,35.99,38.17,49.32Z"/>
      </g>
      <g>
        <path class="cls-1" d="M668.01,1059.78c-.13,.29-.33,.63-.53,1.06-.06,.14-.15,.24-.21,.37v.04s-.04,.06-.04,.06c-.13,.29-.31,.6-.51,.94-.95,1.73-2.37,3.99-4.29,6.64-.14,.22-.29,.38-.46,.58-10.29,13.68-34.71,35.78-85.3,36.95-41.48-50.19-28.39-90.3-24.84-98.85,.44-1.13,.74-1.71,.74-1.71,8.21-18,28.21-26.54,44.59-19.06,13.35,6.1,15.85,30.39,13.44,45.55,0,.19-.03,.34-.06,.48,.09-.12,.22-.22,.36-.35,9.91-10.71,29.2-24.13,42-18.28,15.92,7.26,22.65,26.91,15.54,44.55-.15,.32-.28,.7-.43,1.02Z"/>
        <path class="cls-8" d="M551.84,1007.58s-4.31,77.96,46.1,96.97c0,0-16.63,1.97-21.26,1.88,0,0-43.52-49.49-24.84-98.85Z"/>
        <polyline class="cls-5" points="654.85 1077.62 623.35 1063.25 623 1044.91 593.14 1080.13 598.28 1047.87 576.94 1062.79 577.28 1042.22 547.27 1028.51"/>
        <path class="cls-5" d="M668.01,1059.78c-.13,.29-.33,.63-.53,1.06-.06,.14-.15,.24-.21,.37v.04s-.04,.06-.04,.06c-.13,.29-.31,.6-.51,.94-.95,1.73-2.37,3.99-4.29,6.64-.14,.22-.29,.38-.46,.58-10.29,13.68-34.71,35.78-85.3,36.95-41.48-50.19-28.39-90.3-24.84-98.85,.44-1.13,.74-1.71,.74-1.71,8.21-18,28.21-26.54,44.59-19.06,13.35,6.1,15.85,30.39,13.44,45.55,0,.19-.03,.34-.06,.48,.09-.12,.22-.22,.36-.35,9.91-10.71,29.2-24.13,42-18.28,15.92,7.26,22.65,26.91,15.54,44.55-.15,.32-.28,.7-.43,1.02Z"/>
      </g>
      <g>
        <polygon class="cls-1" points="166.8 912.79 190.39 931.32 187.86 934.54 178.85 927.47 132.42 986.6 145.11 996.57 143.89 998.13 139.09 994.36 62.34 1092.09 56.83 1087.76 49.78 1096.74 45.87 1093.67 -8.71 1163.16 -11.24 1161.17 43.33 1091.68 39.42 1088.6 46.47 1079.63 40.97 1075.3 117.71 977.57 112.92 973.8 114.14 972.25 126.83 982.22 173.27 923.08 164.27 916.02 166.8 912.79"/>
        <polygon class="cls-6" points="185.33 927.35 190.39 931.32 187.86 934.54 178.85 927.47 132.42 986.6 145.11 996.57 143.89 998.13 139.09 994.36 62.34 1092.09 56.83 1087.76 49.78 1096.74 45.87 1093.67 55.43 1081.49 62.19 1084.15 136.78 992.54 129.67 986.96 177.73 925.77 185.33 927.35"/>
        <polygon class="cls-5" points="-8.71 1163.16 45.87 1093.67 49.78 1096.74 56.83 1087.76 62.34 1092.09 139.09 994.36 143.89 998.13 145.11 996.57 132.42 986.6 174.44 933.1 178.85 927.47 187.86 934.54 190.39 931.32 166.8 912.79 164.27 916.02 173.27 923.08 153.77 947.92 126.83 982.22 114.14 972.25 112.92 973.8 117.71 977.57 111.53 985.45 40.97 1075.3 46.47 1079.63 39.42 1088.6 43.33 1091.68 -11.24 1161.17 -8.71 1163.16"/>
        <line class="cls-5" x1="139.09" y1="994.36" x2="117.71" y2="977.57"/>
        <polyline class="cls-5" points="56.83 1087.76 51.65 1083.69 46.47 1079.63"/>
        <line class="cls-5" x1="48.51" y1="1064.72" x2="60.47" y2="1074.11"/>
        <line class="cls-5" x1="62.15" y1="1047.36" x2="74.1" y2="1056.75"/>
        <line class="cls-5" x1="51.93" y1="1060.38" x2="57.91" y2="1065.08"/>
        <line class="cls-5" x1="55.33" y1="1056.04" x2="61.31" y2="1060.73"/>
        <line class="cls-5" x1="58.74" y1="1051.7" x2="64.72" y2="1056.4"/>
        <line class="cls-5" x1="65.56" y1="1043.03" x2="71.53" y2="1047.72"/>
        <line class="cls-5" x1="68.96" y1="1038.69" x2="74.94" y2="1043.38"/>
        <line class="cls-5" x1="72.37" y1="1034.35" x2="78.35" y2="1039.05"/>
        <line class="cls-5" x1="79.18" y1="1025.67" x2="85.16" y2="1030.36"/>
        <line class="cls-5" x1="82.59" y1="1021.33" x2="88.57" y2="1026.02"/>
        <line class="cls-5" x1="86" y1="1016.99" x2="91.98" y2="1021.69"/>
        <line class="cls-5" x1="92.82" y1="1008.32" x2="98.79" y2="1013.01"/>
        <line class="cls-5" x1="96.22" y1="1003.98" x2="102.2" y2="1008.67"/>
        <line class="cls-5" x1="99.63" y1="999.63" x2="105.61" y2="1004.33"/>
        <line class="cls-5" x1="75.78" y1="1030.01" x2="87.73" y2="1039.4"/>
        <line class="cls-5" x1="89.41" y1="1012.65" x2="101.36" y2="1022.04"/>
        <line class="cls-5" x1="103.04" y1="995.3" x2="114.99" y2="1004.69"/>
      </g>
      <g>
        <path class="cls-1" d="M359.35,1040.99c4.65,9.75,.52,21.44-9.24,26.09-9.76,4.66-21.44,.52-26.1-9.23-4.66-9.75-.52-21.44,9.24-26.09,9.76-4.66,21.44-.52,26.1,9.23Z"/>
        <path class="cls-6" d="M360.46,1054.96c-1.61,4.84-5.13,9.64-10.34,12.12-9.77,4.66-21.45,.52-26.11-9.24-2.33-4.88-2.46-10.24-.78-14.96,0,0,2.2,17.45,16.93,20.39,0,0,3.42,1.3,8.34-.06l-9.73-25.87,11.97,25.09c2.97-1.24,6.32-3.49,9.71-7.48Z"/>
        <line class="cls-5" x1="330.99" y1="1032.83" x2="347.85" y2="1068.16"/>
        <path class="cls-5" d="M349.95,1031.67c3.98,1.85,7.36,5.05,9.4,9.31,4.32,9.05,1.07,19.77-7.23,24.99l-16.63-34.85"/>
        <path class="cls-5" d="M359.35,1040.99c4.65,9.75,.52,21.44-9.24,26.09-9.76,4.66-21.44,.52-26.1-9.23-4.66-9.75-.52-21.44,9.24-26.09,9.76-4.66,21.44-.52,26.1,9.23Z"/>
      </g>
      <g>
        <polygon class="cls-1" points="114.28 398.24 129.36 410.09 127.74 412.15 121.99 407.63 92.29 445.45 100.4 451.83 99.62 452.82 96.56 450.41 47.47 512.91 43.94 510.15 39.43 515.89 36.93 513.93 2.03 558.37 .41 557.09 35.31 512.65 32.81 510.69 37.32 504.94 33.8 502.18 82.88 439.67 79.82 437.26 80.6 436.27 88.72 442.65 118.42 404.83 112.66 400.31 114.28 398.24"/>
        <polygon class="cls-6" points="126.13 407.55 129.36 410.09 127.74 412.15 121.99 407.63 92.29 445.45 100.4 451.83 99.62 452.82 96.56 450.41 47.47 512.91 43.94 510.15 39.43 515.89 36.93 513.93 43.05 506.14 47.37 507.84 95.07 449.25 90.53 445.68 121.26 406.54 126.13 407.55"/>
        <polygon class="cls-5" points="2.03 558.37 36.93 513.93 39.43 515.89 43.94 510.15 47.47 512.91 96.56 450.41 99.62 452.82 100.4 451.83 92.29 445.45 119.16 411.23 121.99 407.63 127.74 412.15 129.36 410.09 114.28 398.24 112.66 400.31 118.42 404.83 105.94 420.71 88.72 442.65 80.6 436.27 79.82 437.26 82.88 439.67 78.93 444.72 33.8 502.18 37.32 504.94 32.81 510.69 35.31 512.65 .41 557.09 2.03 558.37"/>
        <line class="cls-5" x1="96.56" y1="450.41" x2="82.88" y2="439.68"/>
        <polyline class="cls-5" points="43.94 510.15 40.63 507.54 37.32 504.94"/>
        <line class="cls-5" x1="38.63" y1="495.41" x2="46.27" y2="501.41"/>
        <line class="cls-5" x1="47.35" y1="484.31" x2="54.99" y2="490.31"/>
        <line class="cls-5" x1="40.81" y1="492.64" x2="44.63" y2="495.64"/>
        <line class="cls-5" x1="42.99" y1="489.86" x2="46.81" y2="492.86"/>
        <line class="cls-5" x1="45.17" y1="487.08" x2="48.99" y2="490.09"/>
        <line class="cls-5" x1="49.52" y1="481.54" x2="53.35" y2="484.54"/>
        <line class="cls-5" x1="51.7" y1="478.76" x2="55.53" y2="481.76"/>
        <line class="cls-5" x1="53.88" y1="475.98" x2="57.71" y2="478.99"/>
        <line class="cls-5" x1="58.24" y1="470.43" x2="62.07" y2="473.44"/>
        <line class="cls-5" x1="60.42" y1="467.66" x2="64.25" y2="470.66"/>
        <line class="cls-5" x1="62.6" y1="464.89" x2="66.42" y2="467.89"/>
        <line class="cls-5" x1="66.96" y1="459.34" x2="70.78" y2="462.34"/>
        <line class="cls-5" x1="69.14" y1="456.56" x2="72.96" y2="459.56"/>
        <line class="cls-5" x1="71.32" y1="453.78" x2="75.14" y2="456.79"/>
        <line class="cls-5" x1="56.06" y1="473.21" x2="63.71" y2="479.21"/>
        <line class="cls-5" x1="64.78" y1="462.11" x2="72.43" y2="468.12"/>
        <line class="cls-5" x1="73.5" y1="451.01" x2="81.14" y2="457.02"/>
        <line class="cls-5" x1="36.93" y1="513.93" x2="35.31" y2="512.65"/>
      </g>
      <g>
        <path class="cls-1" d="M465.55,1097.03c3.49,13.09-4.28,26.48-17.36,29.97-13.06,3.48-26.45-4.29-29.94-17.37-2.67-10.04,1.29-20.31,9.21-26.08l-33.17-124.55c-1.12-4.2,1.81-8.64,6.52-9.9,2.36-.63,4.76-.35,6.67,.62,1.9,.95,3.39,2.62,3.94,4.7l33.18,124.58c9.74,1.07,18.28,7.99,20.95,18.02Z"/>
        <path class="cls-8" d="M400.81,949.1c-2.82,.98-7.64,5.7-6.52,9.9l33.17,124.55c-7.91,5.77-11.88,16.05-9.21,26.08,3.49,13.08,16.88,20.84,29.94,17.37,13.08-3.49,20.85-16.88,17.36-29.97-.21-.81-.47-1.59-.76-2.35,0,0-1.95,21.31-18.32,25.81,0,0-16.84,4.04-22.5-12,0,0-2.32-18.88,9.21-20.54l-33.03-128.68s-.88-2.95,.67-10.17Z"/>
        <line class="cls-5" x1="441.62" y1="1068.9" x2="433.32" y2="1071.11"/>
        <line class="cls-5" x1="413.47" y1="963.18" x2="405.16" y2="965.39"/>
        <line class="cls-5" x1="418.16" y1="980.8" x2="409.85" y2="983.01"/>
        <line class="cls-5" x1="422.86" y1="998.42" x2="414.54" y2="1000.63"/>
        <line class="cls-5" x1="427.54" y1="1016.03" x2="419.24" y2="1018.25"/>
        <line class="cls-5" x1="432.24" y1="1033.66" x2="423.93" y2="1035.87"/>
        <line class="cls-5" x1="436.93" y1="1051.28" x2="428.62" y2="1053.49"/>
        <path class="cls-5" d="M465.58,1097.03c3.49,13.09-4.28,26.48-17.36,29.97-13.06,3.48-26.45-4.29-29.94-17.37-2.67-10.04,1.29-20.31,9.21-26.08l-33.17-124.55c-1.12-4.2,1.81-8.64,6.52-9.9,2.36-.63,4.76-.35,6.67,.62,1.9,.95,3.39,2.62,3.94,4.7l33.18,124.58c9.74,1.07,18.28,7.99,20.95,18.02Z"/>
      </g>
      <g>
        <path class="cls-1" d="M110.43,878.33c0,9.05-7.34,16.4-16.39,16.4H13.42c-9.05,0-16.39-7.34-16.39-16.4v-16.39c0-9.05,7.34-16.39,16.39-16.39H94.04c9.06,0,16.39,7.34,16.39,16.39v16.39Z"/>
        <rect class="cls-6" x="48.61" y="845.54" width="10.25" height="49.19"/>
        <path class="cls-6" d="M-2.97,870.13s0,31.83,111.5,15.86c0,0-2.63,10.51-25.39,8.73H13.42s-17.07,3.14-16.39-24.6Z"/>
        <line class="cls-5" x1="58.86" y1="845.54" x2="58.86" y2="894.73"/>
        <line class="cls-5" x1="48.61" y1="845.54" x2="48.61" y2="894.73"/>
        <path class="cls-5" d="M110.43,878.36c0,9.05-7.34,16.4-16.39,16.4H13.42c-9.05,0-16.39-7.34-16.39-16.4v-16.39c0-9.05,7.34-16.39,16.39-16.39H94.04c9.06,0,16.39,7.34,16.39,16.39v16.39Z"/>
      </g>
      <g>
        <path class="cls-1" d="M88.13,140.25c-6.68,13.33-34.6,12.86-62.36-1.05C-1.99,125.28-19.07,103.2-12.39,89.87c6.68-13.33,34.59-12.86,62.35,1.05,27.76,13.91,44.85,35.99,38.17,49.32Z"/>
        <path class="cls-8" d="M-12.39,89.87s19.55,47.9,93.76,56.91c0,0-21.4,11.48-63.26-11.42,0,0-39.42-24.25-30.5-45.48Z"/>
        <path class="cls-8" d="M20.77,136.69l24.19-48.27s5.36,2.55,8.76,4.48l-24.11,48.12-8.84-4.33Z"/>
        <line class="cls-5" x1="20.85" y1="136.53" x2="44.96" y2="88.41"/>
        <line class="cls-5" x1="53.72" y1="92.9" x2="29.61" y2="141.02"/>
        <path class="cls-5" d="M88.13,140.25c-6.68,13.33-34.6,12.86-62.36-1.05C-1.99,125.28-19.07,103.2-12.39,89.87c6.68-13.33,34.59-12.86,62.35,1.05,27.76,13.91,44.85,35.99,38.17,49.32Z"/>
      </g>
      <g>
        <path class="cls-1" d="M64.59,328.87c-.13,.29-.33,.63-.53,1.06-.06,.14-.15,.24-.21,.37v.04s-.04,.06-.04,.06c-.13,.29-.31,.6-.51,.94-.95,1.73-2.37,3.99-4.29,6.64-.14,.22-.29,.38-.46,.58-10.29,13.68-34.71,35.78-85.3,36.95-41.48-50.19-28.39-90.3-24.84-98.85,.44-1.13,.74-1.71,.74-1.71,8.21-18,28.21-26.54,44.59-19.06,13.35,6.1,15.85,30.39,13.44,45.55,0,.19-.03,.34-.06,.48,.09-.12,.22-.22,.36-.35,9.91-10.71,29.2-24.13,42-18.28,15.92,7.26,22.65,26.91,15.54,44.55-.15,.32-.28,.7-.43,1.02Z"/>
        <polyline class="cls-5" points="51.43 346.72 19.93 332.34 19.58 314 -10.28 349.22 -5.14 316.96 -26.48 331.88 -26.14 311.31 -56.16 297.6"/>
        <path class="cls-5" d="M64.59,328.87c-.13,.29-.33,.63-.53,1.06-.06,.14-.15,.24-.21,.37v.04s-.04,.06-.04,.06c-.13,.29-.31,.6-.51,.94-.95,1.73-2.37,3.99-4.29,6.64-.14,.22-.29,.38-.46,.58-10.29,13.68-34.71,35.78-85.3,36.95-41.48-50.19-28.39-90.3-24.84-98.85,.44-1.13,.74-1.71,.74-1.71,8.21-18,28.21-26.54,44.59-19.06,13.35,6.1,15.85,30.39,13.44,45.55,0,.19-.03,.34-.06,.48,.09-.12,.22-.22,.36-.35,9.91-10.71,29.2-24.13,42-18.28,15.92,7.26,22.65,26.91,15.54,44.55-.15,.32-.28,.7-.43,1.02Z"/>
      </g>
      <g>
        <path class="cls-1" d="M57.73,707.07c-8.75,9.66-20.35,14.89-34.52,15.54,.22,30.73-6.19,52.62-19.09,65.07-9.81,9.46-20.09,10.04-22.38,10.04-.27,0-.42,0-.45-.04-12.53-.12-22.69-4.54-30.05-13.13-13.79-16.08-13.82-42.42-12.98-54.38-8.44-1.98-14.74-9.54-14.74-18.6,0-10.53,8.56-19.09,19.09-19.09s19.09,8.56,19.09,19.09c0,9.43-6.83,17.26-15.81,18.79-.73,10.77-.88,35.2,11.15,49.22,5.88,6.87,14.09,10.39,24.48,10.5,.5,0,9.04,.19,17.49-8.1,7.75-7.6,16.84-24.02,16.58-59.37-14.17-.65-25.77-5.88-34.52-15.54-23.45-25.93-18.37-74.43-18.14-76.49,.96-8.24,4.2-14.39,9.63-18.25,5-3.56,10.92-4.47,15.39-4.51,.88-2.29,3.09-3.9,5.69-3.9H-3.59c3.39,0,6.14,2.75,6.14,6.18s-2.75,6.15-6.14,6.15h-2.79c-2.86,0-5.27-1.94-5.92-4.58-3.89,.08-8.86,.88-12.98,3.78-4.51,3.21-7.18,8.44-7.98,15.58-.08,.46-5.16,48.84,17.14,73.47,8.75,9.66,20.7,14.5,35.47,14.32,.27,.04,.5,.04,.73,.04,14.55,0,26.24-4.85,34.83-14.36,22.3-24.68,17.22-73.02,17.15-73.51-.81-7.1-3.52-12.37-8.02-15.54-3.55-2.56-7.71-3.47-11.26-3.7-.53,2.86-3.02,5-6.07,5h-2.75c-3.39,0-6.15-2.75-6.15-6.15s2.75-6.18,6.15-6.18h2.75c2.44,0,4.5,1.41,5.5,3.43,4.28,.19,9.5,1.26,14.05,4.47,5.46,3.86,8.67,10,9.63,18.25,.22,2.06,5.3,50.56-18.14,76.49Z"/>
        <path class="cls-5" d="M57.73,707.07c-8.75,9.66-20.35,14.89-34.52,15.54,.22,30.73-6.19,52.62-19.09,65.07-9.81,9.47-20.09,10.04-22.38,10.04-.27,0-.42,0-.45-.03-12.53-.12-22.69-4.54-30.05-13.14-13.79-16.07-13.82-42.42-12.98-54.38-8.44-1.99-14.74-9.54-14.74-18.6,0-10.53,8.56-19.09,19.09-19.09s19.09,8.56,19.09,19.09c0,9.44-6.83,17.26-15.81,18.79-.73,10.77-.88,35.21,11.15,49.22,5.88,6.87,14.09,10.38,24.48,10.5,.5,0,9.04,.19,17.49-8.1,7.75-7.6,16.84-24.01,16.58-59.37-14.17-.65-25.77-5.88-34.52-15.54-23.45-25.93-18.37-74.43-18.14-76.49,.96-8.24,4.2-14.39,9.63-18.25,5-3.56,10.92-4.47,15.39-4.51,.88-2.29,3.09-3.9,5.69-3.9H-3.59c3.39,0,6.14,2.75,6.14,6.18s-2.75,6.15-6.14,6.15h-2.79c-2.86,0-5.27-1.94-5.92-4.58-3.89,.08-8.86,.88-12.98,3.78-4.51,3.21-7.18,8.44-7.98,15.58-.08,.46-5.16,48.84,17.14,73.47,8.75,9.66,20.7,14.51,35.47,14.32,.27,.03,.5,.03,.73,.03,14.55,0,26.24-4.85,34.83-14.36,22.3-24.67,17.22-73.01,17.15-73.51-.81-7.1-3.52-12.37-8.02-15.54-3.55-2.56-7.71-3.47-11.26-3.7-.53,2.86-3.02,5-6.07,5h-2.75c-3.39,0-6.15-2.75-6.15-6.15s2.75-6.18,6.15-6.18h2.75c2.44,0,4.5,1.41,5.5,3.43,4.28,.19,9.5,1.27,14.05,4.47,5.46,3.86,8.67,10.01,9.63,18.25,.22,2.06,5.3,50.56-18.14,76.49Z"/>
        <line class="cls-5" x1="52.2" y1="607.86" x2="52.77" y2="611.76"/>
      </g>
      <g>
        <path class="cls-1" d="M195.93,728.84c0,7.42-4.85,13.44-10.81,13.44h-39.01v39.04c0,5.96-6.04,10.78-13.46,10.78-3.73,0-7.07-1.21-9.52-3.16-2.44-1.96-3.94-4.65-3.94-7.63v-39.04h-39.03c-2.98,0-5.67-1.5-7.64-3.94-1.94-2.42-3.16-5.78-3.16-9.5,0-7.44,4.83-13.46,10.79-13.46h39.03v-39.04c0-5.96,6.02-10.78,13.46-10.78,3.71,0,7.07,1.21,9.51,3.16,2.45,1.96,3.95,4.65,3.95,7.63v39.04h39.01c2.98,0,5.67,1.5,7.63,3.94,1.96,2.42,3.17,5.81,3.17,9.52Z"/>
        <path class="cls-8" d="M72.52,738.34h53.4v52.32s-7.76-2.46-6.64-14.77l-.1-33.6h-34.57s-7.72,1.59-12.1-3.94Z"/>
        <path class="cls-8" d="M119.19,715.38h6.74v-48.37s-6.74,3.1-6.74,9.33v39.04Z"/>
        <path class="cls-5" d="M195.93,728.84c0,7.42-4.85,13.44-10.81,13.44h-39.01v39.04c0,5.96-6.04,10.78-13.46,10.78-3.73,0-7.07-1.21-9.52-3.16-2.44-1.96-3.94-4.65-3.94-7.63v-39.04h-39.03c-2.98,0-5.67-1.5-7.64-3.94-1.94-2.42-3.16-5.78-3.16-9.5,0-7.44,4.83-13.46,10.79-13.46h39.03v-39.04c0-5.96,6.02-10.78,13.46-10.78,3.71,0,7.07,1.21,9.51,3.16,2.45,1.96,3.95,4.65,3.95,7.63v39.04h39.01c2.98,0,5.67,1.5,7.63,3.94,1.96,2.42,3.17,5.81,3.17,9.52Z"/>
      </g>
      <g>
        <rect class="cls-1" x="399.84" y="-19.94" width="86.2" height="37.39" rx="12.46" ry="12.46"/>
        <rect class="cls-6" x="439.04" y="-19.94" width="7.79" height="37.39"/>
        <path class="cls-6" d="M399.84-1.25s0,24.19,84.75,12.06c0,0-2,7.99-19.3,6.64h-52.99s-12.97,2.39-12.46-18.69Z"/>
        <line class="cls-5" x1="446.83" y1="-19.94" x2="446.83" y2="17.45"/>
        <line class="cls-5" x1="439.04" y1="-19.94" x2="439.04" y2="17.45"/>
        <path class="cls-5" d="M486.03,5c0,6.89-5.58,12.47-12.46,12.47h-61.28c-6.88,0-12.46-5.58-12.46-12.47V-7.45c0-6.89,5.58-12.46,12.46-12.46h61.28c6.88,0,12.46,5.58,12.46,12.46V5Z"/>
      </g>
      <g>
        <path class="cls-1" d="M258.51,17.25c-.13,.29-.33,.63-.53,1.06-.06,.14-.15,.24-.21,.37v.04s-.04,.06-.04,.06c-.13,.29-.31,.6-.51,.94-.95,1.73-2.37,3.99-4.29,6.64-.14,.22-.29,.38-.46,.58-10.29,13.68-34.71,35.78-85.3,36.95-41.48-50.19-28.39-90.3-24.84-98.85,.44-1.13,.74-1.71,.74-1.71,8.21-18,28.21-26.54,44.59-19.06,13.35,6.1,15.85,30.39,13.44,45.55,0,.19-.03,.34-.06,.48,.09-.12,.22-.22,.36-.35,9.91-10.71,29.2-24.13,42-18.28,15.92,7.26,22.65,26.91,15.54,44.55-.15,.32-.28,.7-.43,1.02Z"/>
        <path class="cls-8" d="M142.34-34.96s-4.31,77.96,46.1,96.97c0,0-16.63,1.97-21.26,1.88,0,0-43.52-49.49-24.84-98.85Z"/>
        <polyline class="cls-5" points="245.35 35.09 213.86 20.71 213.5 2.37 183.64 37.59 188.79 5.33 167.45 20.25 167.78 -.32 137.77 -14.02"/>
        <path class="cls-5" d="M258.51,17.25c-.13,.29-.33,.63-.53,1.06-.06,.14-.15,.24-.21,.37v.04s-.04,.06-.04,.06c-.13,.29-.31,.6-.51,.94-.95,1.73-2.37,3.99-4.29,6.64-.14,.22-.29,.38-.46,.58-10.29,13.68-34.71,35.78-85.3,36.95-41.48-50.19-28.39-90.3-24.84-98.85,.44-1.13,.74-1.71,.74-1.71,8.21-18,28.21-26.54,44.59-19.06,13.35,6.1,15.85,30.39,13.44,45.55,0,.19-.03,.34-.06,.48,.09-.12,.22-.22,.36-.35,9.91-10.71,29.2-24.13,42-18.28,15.92,7.26,22.65,26.91,15.54,44.55-.15,.32-.28,.7-.43,1.02Z"/>
      </g>
      <g>
        <path class="cls-1" d="M188.43,340.63c.22,15.4-12.09,28.07-27.49,28.29-15.4,.22-28.07-12.08-28.29-27.49-.22-15.4,12.09-28.06,27.49-28.29,15.41-.22,28.07,12.08,28.29,27.49Z"/>
        <path class="cls-6" d="M181.55,359.37c-4.96,5.31-12.38,9.42-20.6,9.54-15.42,.22-28.09-12.09-28.31-27.5-.12-7.7,2.92-14.72,7.9-19.82,0,0-7.54,23.91,9.78,36.48,0,0,3.65,3.72,10.84,4.88l2.8-39.29,.56,39.61c4.58,.17,10.26-.76,17.03-3.9Z"/>
        <line class="cls-5" x1="156.57" y1="313.19" x2="157.37" y2="368.96"/>
        <path class="cls-5" d="M181.81,322.97c4.05,4.77,6.53,10.91,6.63,17.66,.2,14.29-10.39,26.23-24.23,28.05l-.78-55.02"/>
        <path class="cls-5" d="M188.43,340.63c.22,15.4-12.09,28.07-27.49,28.29-15.4,.22-28.07-12.08-28.29-27.49-.22-15.4,12.09-28.06,27.49-28.29,15.41-.22,28.07,12.08,28.29,27.49Z"/>
      </g>
      <g>
        <path class="cls-1" d="M244.07,176.86c0,7.42-4.85,13.44-10.81,13.44h-39.01v39.04c0,5.96-6.04,10.78-13.46,10.78-3.73,0-7.07-1.21-9.52-3.16-2.44-1.96-3.94-4.65-3.94-7.63v-39.04h-39.03c-2.98,0-5.67-1.5-7.64-3.94-1.94-2.42-3.16-5.78-3.16-9.5,0-7.44,4.83-13.46,10.79-13.46h39.03v-39.04c0-5.96,6.02-10.78,13.46-10.78,3.71,0,7.07,1.21,9.51,3.16,2.45,1.96,3.95,4.65,3.95,7.63v39.04h39.01c2.98,0,5.67,1.5,7.63,3.94,1.96,2.42,3.17,5.81,3.17,9.52Z"/>
        <path class="cls-8" d="M120.66,186.36h53.4v52.32s-7.76-2.46-6.64-14.77l-.1-33.6h-34.57s-7.72,1.59-12.1-3.94Z"/>
        <path class="cls-8" d="M167.33,163.4h6.74v-48.37s-6.74,3.1-6.74,9.33v39.04Z"/>
        <path class="cls-5" d="M244.07,176.86c0,7.42-4.85,13.44-10.81,13.44h-39.01v39.04c0,5.96-6.04,10.78-13.46,10.78-3.73,0-7.07-1.21-9.52-3.16-2.44-1.96-3.94-4.65-3.94-7.63v-39.04h-39.03c-2.98,0-5.67-1.5-7.64-3.94-1.94-2.42-3.16-5.78-3.16-9.5,0-7.44,4.83-13.46,10.79-13.46h39.03v-39.04c0-5.96,6.02-10.78,13.46-10.78,3.71,0,7.07,1.21,9.51,3.16,2.45,1.96,3.95,4.65,3.95,7.63v39.04h39.01c2.98,0,5.67,1.5,7.63,3.94,1.96,2.42,3.17,5.81,3.17,9.52Z"/>
      </g>
      <line class="cls-3" x1="1374.26" y1="210.14" x2="1418.62" y2="165.78"/>
      <line class="cls-3" x1="1552.28" y1="861.64" x2="1596.64" y2="817.28"/>
      <line class="cls-3" x1="1694.27" y1="686.99" x2="1738.63" y2="642.63"/>
      <line class="cls-3" x1="877.75" y1="991.47" x2="922.11" y2="947.11"/>
      <line class="cls-3" x1="1218.6" y1="817.53" x2="1262.96" y2="773.17"/>
      <line class="cls-3" x1="581.03" y1="912.38" x2="625.39" y2="868.02"/>
      <line class="cls-3" x1="477.46" y1="796.22" x2="521.82" y2="751.86"/>
      <line class="cls-3" x1="596.94" y1="347.88" x2="641.3" y2="303.52"/>
      <line class="cls-3" x1="338.28" y1="104.09" x2="382.64" y2="59.73"/>
      <line class="cls-3" x1="1017.44" y1="144.94" x2="1061.8" y2="100.58"/>
      <line class="cls-3" x1="1600.78" y1="126.27" x2="1645.14" y2="81.91"/>
      <line class="cls-3" x1="1848.16" y1="444.68" x2="1892.52" y2="400.32"/>
      <line class="cls-3" x1="1786.81" y1="954.56" x2="1831.17" y2="910.2"/>
      <line class="cls-3" x1="1410.65" y1="975.09" x2="1455.01" y2="930.73"/>
      <line class="cls-3" x1="390.04" y1="390.97" x2="434.4" y2="346.61"/>
      <rect class="cls-4" x="300" y="-1.2" width="1620" height="1080"/>
    </g>
  </g>
</svg>