<?xml version="1.0" encoding="UTF-8"?>
<svg id="Layer_2" data-name="Layer 2" xmlns="http://www.w3.org/2000/svg" xmlns:xlink="http://www.w3.org/1999/xlink" viewBox="0 0 1920 1080">
  <defs>
    <style>
      .cls-1 {
        fill: #fff;
      }

      .cls-2 {
        opacity: .5;
        stroke: #f2eb79;
        stroke-dasharray: 0 0 .39 3.88;
        stroke-linecap: round;
        stroke-linejoin: round;
        stroke-width: 2px;
      }

      .cls-2, .cls-3, .cls-4 {
        fill: none;
      }

      .cls-5 {
        fill: #fdea79;
      }

      .cls-6 {
        clip-path: url(#clippath);
      }

      .cls-4 {
        stroke: #20648b;
        stroke-miterlimit: 10;
        stroke-width: .5px;
      }

      .cls-7 {
        fill: #d1edfb;
      }
    </style>
    <clipPath id="clippath">
      <rect class="cls-3" width="1920" height="1080"/>
    </clipPath>
  </defs>
  <g id="Layer_1-2" data-name="Layer 1">
    <rect class="cls-1" width="1920" height="1077.02"/>
    <g class="cls-6">
      <g>
        <rect class="cls-1" x="1771.16" y="848.24" width="86.2" height="37.39" rx="12.46" ry="12.46"/>
        <rect class="cls-5" x="1810.37" y="848.24" width="7.79" height="37.39"/>
        <path class="cls-5" d="M1771.16,866.93s0,24.19,84.75,12.06c0,0-2,7.99-19.3,6.64h-52.99s-12.97,2.39-12.46-18.69Z"/>
        <line class="cls-4" x1="1818.16" y1="848.24" x2="1818.16" y2="885.62"/>
        <line class="cls-4" x1="1810.37" y1="848.24" x2="1810.37" y2="885.62"/>
        <path class="cls-4" d="M1857.36,873.18c0,6.88-5.58,12.46-12.46,12.46h-61.28c-6.88,0-12.46-5.58-12.46-12.46v-12.46c0-6.88,5.58-12.46,12.46-12.46h61.28c6.88,0,12.46,5.58,12.46,12.46v12.46Z"/>
      </g>
      <g>
        <path class="cls-1" d="M1804.56,745.57c-4.06,8.11-21.05,7.83-37.95-.64-16.9-8.46-27.29-21.9-23.22-30.02,4.06-8.11,21.05-7.83,37.94,.64,16.9,8.47,27.3,21.9,23.23,30.02Z"/>
        <path class="cls-7" d="M1743.39,714.91s11.9,29.15,57.06,34.63c0,0-13.02,6.99-38.5-6.95,0,0-23.99-14.76-18.56-27.68Z"/>
        <path class="cls-7" d="M1763.57,743.4l14.72-29.38s3.26,1.55,5.33,2.73l-14.67,29.28-5.38-2.64Z"/>
        <line class="cls-4" x1="1763.62" y1="743.3" x2="1778.29" y2="714.03"/>
        <line class="cls-4" x1="1783.62" y1="716.75" x2="1768.95" y2="746.04"/>
        <path class="cls-4" d="M1804.56,745.57c-4.06,8.11-21.05,7.83-37.95-.64-16.9-8.46-27.29-21.9-23.22-30.02,4.06-8.11,21.05-7.83,37.94,.64,16.9,8.47,27.3,21.9,23.23,30.02Z"/>
      </g>
      <g>
        <path class="cls-1" d="M1767.66,837.94c-.14,.29-.33,.63-.53,1.06-.06,.13-.15,.24-.21,.37v.04s-.04,.06-.04,.06c-.13,.29-.31,.6-.51,.94-.95,1.73-2.37,3.99-4.29,6.64-.14,.22-.29,.38-.46,.58-10.29,13.68-34.71,35.78-85.3,36.95-41.48-50.19-28.39-90.3-24.84-98.85,.44-1.13,.74-1.71,.74-1.71,8.21-18,28.21-26.54,44.59-19.06,13.35,6.1,15.85,30.39,13.44,45.55,0,.19-.03,.34-.06,.48,.09-.12,.22-.21,.36-.35,9.91-10.7,29.2-24.13,42-18.28,15.92,7.27,22.65,26.91,15.54,44.55-.15,.32-.28,.7-.43,1.02Z"/>
        <path class="cls-7" d="M1651.49,785.73s-4.31,77.96,46.1,96.97c0,0-16.63,1.97-21.26,1.88,0,0-43.52-49.49-24.84-98.85Z"/>
        <polyline class="cls-4" points="1754.5 855.78 1723 841.41 1722.65 823.07 1692.79 858.28 1697.93 826.02 1676.59 840.95 1676.93 820.37 1646.92 806.67"/>
        <path class="cls-4" d="M1767.66,837.94c-.14,.29-.33,.63-.53,1.06-.06,.13-.15,.24-.21,.37v.04s-.04,.06-.04,.06c-.13,.29-.31,.6-.51,.94-.95,1.73-2.37,3.99-4.29,6.64-.14,.22-.29,.38-.46,.58-10.29,13.68-34.71,35.78-85.3,36.95-41.48-50.19-28.39-90.3-24.84-98.85,.44-1.13,.74-1.71,.74-1.71,8.21-18,28.21-26.54,44.59-19.06,13.35,6.1,15.85,30.39,13.44,45.55,0,.19-.03,.34-.06,.48,.09-.12,.22-.21,.36-.35,9.91-10.7,29.2-24.13,42-18.28,15.92,7.27,22.65,26.91,15.54,44.55-.15,.32-.28,.7-.43,1.02Z"/>
      </g>
      <g>
        <path class="cls-1" d="M1594.38,953.71c4.65,9.75,.52,21.44-9.24,26.1-9.76,4.66-21.44,.52-26.09-9.23-4.66-9.76-.52-21.44,9.24-26.1,9.76-4.66,21.44-.52,26.1,9.23Z"/>
        <path class="cls-5" d="M1595.48,967.68c-1.61,4.84-5.13,9.64-10.34,12.12-9.77,4.66-21.45,.52-26.11-9.24-2.33-4.88-2.46-10.24-.78-14.96,0,0,2.2,17.45,16.93,20.39,0,0,3.42,1.3,8.34-.07l-9.73-25.87,11.97,25.09c2.97-1.23,6.32-3.49,9.71-7.48Z"/>
        <line class="cls-4" x1="1566.02" y1="945.56" x2="1582.88" y2="980.89"/>
        <path class="cls-4" d="M1584.98,944.4c3.98,1.85,7.36,5.04,9.4,9.31,4.32,9.06,1.07,19.77-7.23,24.99l-16.63-34.85"/>
        <path class="cls-4" d="M1594.38,953.71c4.65,9.75,.52,21.44-9.24,26.1-9.76,4.66-21.44,.52-26.09-9.23-4.66-9.76-.52-21.44,9.24-26.1,9.76-4.66,21.44-.52,26.1,9.23Z"/>
      </g>
      <g>
        <path class="cls-1" d="M1657.89,1055.12c.22,15.4-12.09,28.07-27.49,28.29-15.4,.22-28.07-12.08-28.29-27.49-.22-15.4,12.09-28.07,27.49-28.29,15.41-.22,28.07,12.08,28.29,27.49Z"/>
        <path class="cls-5" d="M1651,1073.87c-4.96,5.31-12.38,9.42-20.6,9.54-15.42,.22-28.09-12.09-28.31-27.5-.12-7.7,2.92-14.72,7.9-19.83,0,0-7.54,23.91,9.78,36.48,0,0,3.65,3.72,10.84,4.88l2.8-39.29,.56,39.61c4.58,.17,10.26-.76,17.03-3.9Z"/>
        <line class="cls-4" x1="1626.02" y1="1027.69" x2="1626.82" y2="1083.46"/>
        <path class="cls-4" d="M1651.26,1037.47c4.05,4.77,6.53,10.91,6.63,17.65,.2,14.29-10.39,26.23-24.23,28.05l-.78-55.02"/>
        <path class="cls-4" d="M1657.89,1055.12c.22,15.4-12.09,28.07-27.49,28.29-15.4,.22-28.07-12.08-28.29-27.49-.22-15.4,12.09-28.07,27.49-28.29,15.41-.22,28.07,12.08,28.29,27.49Z"/>
      </g>
      <g>
        <path class="cls-1" d="M1464.5,1082.34c-8.75,9.66-20.35,14.89-34.52,15.54,.22,30.73-6.19,52.62-19.09,65.07-9.82,9.46-20.09,10.04-22.38,10.04-.27,0-.42,0-.45-.04-12.53-.12-22.69-4.54-30.05-13.14-13.79-16.08-13.82-42.42-12.98-54.38-8.44-1.98-14.74-9.54-14.74-18.6,0-10.53,8.56-19.09,19.09-19.09s19.09,8.56,19.09,19.09c0,9.44-6.83,17.26-15.81,18.79-.73,10.77-.88,35.2,11.15,49.22,5.88,6.87,14.09,10.38,24.48,10.5,.5,0,9.05,.19,17.49-8.1,7.75-7.6,16.84-24.02,16.58-59.37-14.17-.65-25.77-5.88-34.52-15.54-23.45-25.93-18.37-74.43-18.14-76.49,.96-8.24,4.2-14.39,9.62-18.25,5-3.56,10.92-4.47,15.39-4.51,.88-2.29,3.09-3.9,5.69-3.9h2.79c3.39,0,6.14,2.75,6.14,6.18s-2.75,6.15-6.14,6.15h-2.79c-2.86,0-5.27-1.94-5.92-4.58-3.89,.08-8.86,.88-12.98,3.78-4.51,3.21-7.18,8.44-7.98,15.58-.08,.46-5.16,48.84,17.14,73.47,8.75,9.66,20.7,14.51,35.47,14.32,.27,.04,.5,.04,.73,.04,14.55,0,26.24-4.85,34.83-14.36,22.3-24.67,17.22-73.02,17.15-73.51-.81-7.1-3.52-12.37-8.02-15.54-3.55-2.56-7.71-3.47-11.26-3.7-.53,2.86-3.02,5-6.07,5h-2.75c-3.39,0-6.15-2.75-6.15-6.15s2.75-6.18,6.15-6.18h2.75c2.44,0,4.5,1.41,5.5,3.43,4.28,.19,9.5,1.26,14.05,4.47,5.46,3.86,8.67,10,9.63,18.25,.22,2.06,5.3,50.56-18.14,76.49Z"/>
        <path class="cls-5" d="M1333.81,1076.09s-2.85,22.61,23.5,28.11c0,0-15.8,4.68-22.44-4.51-8.37-11.58-1.06-23.6-1.06-23.6Z"/>
        <path class="cls-4" d="M1464.5,1082.34c-8.75,9.66-20.35,14.89-34.52,15.54,.22,30.73-6.19,52.62-19.09,65.07-9.82,9.47-20.09,10.04-22.38,10.04-.27,0-.42,0-.45-.03-12.53-.12-22.69-4.54-30.05-13.14-13.79-16.07-13.82-42.42-12.98-54.38-8.44-1.99-14.74-9.54-14.74-18.6,0-10.53,8.56-19.09,19.09-19.09s19.09,8.56,19.09,19.09c0,9.44-6.83,17.26-15.81,18.79-.73,10.77-.88,35.21,11.15,49.22,5.88,6.87,14.09,10.38,24.48,10.5,.5,0,9.05,.19,17.49-8.1,7.75-7.6,16.84-24.01,16.58-59.37-14.17-.65-25.77-5.88-34.52-15.54-23.45-25.93-18.37-74.43-18.14-76.49,.96-8.24,4.2-14.39,9.62-18.25,5-3.56,10.92-4.47,15.39-4.51,.88-2.29,3.09-3.9,5.69-3.9h2.79c3.39,0,6.14,2.75,6.14,6.18s-2.75,6.15-6.14,6.15h-2.79c-2.86,0-5.27-1.94-5.92-4.58-3.89,.08-8.86,.88-12.98,3.78-4.51,3.21-7.18,8.44-7.98,15.58-.08,.46-5.16,48.84,17.14,73.47,8.75,9.66,20.7,14.51,35.47,14.32,.27,.03,.5,.03,.73,.03,14.55,0,26.24-4.85,34.83-14.36,22.3-24.67,17.22-73.01,17.15-73.51-.81-7.1-3.52-12.37-8.02-15.54-3.55-2.56-7.71-3.47-11.26-3.7-.53,2.86-3.02,5-6.07,5h-2.75c-3.39,0-6.15-2.75-6.15-6.15s2.75-6.18,6.15-6.18h2.75c2.44,0,4.5,1.41,5.5,3.43,4.28,.19,9.5,1.27,14.05,4.47,5.46,3.86,8.67,10.01,9.63,18.25,.22,2.06,5.3,50.56-18.14,76.49Z"/>
        <path class="cls-4" d="M1361.25,1085.99c0,6.27-5.08,11.35-11.35,11.35s-11.35-5.08-11.35-11.35,5.08-11.35,11.35-11.35,11.35,5.08,11.35,11.35Z"/>
        <line class="cls-4" x1="1394.7" y1="983.1" x2="1394.47" y2="986.95"/>
        <line class="cls-4" x1="1458.97" y1="983.13" x2="1459.54" y2="987.03"/>
      </g>
      <g>
        <path class="cls-1" d="M1796.72,982.13c0,7.42-4.85,13.44-10.81,13.44h-39.01v39.03c0,5.96-6.04,10.79-13.46,10.79-3.73,0-7.07-1.21-9.52-3.16-2.44-1.96-3.94-4.65-3.94-7.63v-39.03h-39.03c-2.98,0-5.67-1.5-7.64-3.95-1.94-2.42-3.16-5.78-3.16-9.49,0-7.44,4.83-13.46,10.79-13.46h39.03v-39.04c0-5.96,6.02-10.79,13.46-10.79,3.71,0,7.07,1.21,9.51,3.16,2.45,1.96,3.95,4.65,3.95,7.63v39.04h39.01c2.98,0,5.67,1.5,7.63,3.94,1.96,2.42,3.17,5.81,3.17,9.52Z"/>
        <path class="cls-7" d="M1673.31,991.63h53.4v52.32s-7.76-2.46-6.64-14.77l-.1-33.6h-34.57s-7.72,1.59-12.1-3.95Z"/>
        <path class="cls-7" d="M1719.98,968.67h6.74v-48.37s-6.74,3.1-6.74,9.33v39.04Z"/>
        <path class="cls-4" d="M1796.72,982.13c0,7.42-4.85,13.44-10.81,13.44h-39.01v39.03c0,5.96-6.04,10.79-13.46,10.79-3.73,0-7.07-1.21-9.52-3.16-2.44-1.96-3.94-4.65-3.94-7.63v-39.03h-39.03c-2.98,0-5.67-1.5-7.64-3.95-1.94-2.42-3.16-5.78-3.16-9.49,0-7.44,4.83-13.46,10.79-13.46h39.03v-39.04c0-5.96,6.02-10.79,13.46-10.79,3.71,0,7.07,1.21,9.51,3.16,2.45,1.96,3.95,4.65,3.95,7.63v39.04h39.01c2.98,0,5.67,1.5,7.63,3.94,1.96,2.42,3.17,5.81,3.17,9.52Z"/>
      </g>
      <g>
        <path class="cls-1" d="M1278.01,1119.69c3.49,13.09-4.28,26.48-17.36,29.96-13.06,3.48-26.45-4.28-29.94-17.37-2.67-10.04,1.29-20.31,9.21-26.08l-33.17-124.55c-1.12-4.2,1.81-8.64,6.52-9.9,2.36-.63,4.76-.35,6.67,.62,1.9,.95,3.39,2.62,3.94,4.71l33.18,124.58c9.74,1.07,18.28,7.99,20.95,18.02Z"/>
        <path class="cls-7" d="M1213.26,971.75c-2.82,.98-7.64,5.69-6.52,9.9l33.17,124.55c-7.91,5.77-11.88,16.05-9.21,26.08,3.49,13.08,16.88,20.85,29.94,17.37,13.08-3.49,20.85-16.88,17.36-29.96-.21-.81-.47-1.59-.76-2.35,0,0-1.95,21.31-18.32,25.81,0,0-16.84,4.04-22.5-12,0,0-2.32-18.88,9.21-20.54l-33.03-128.68s-.88-2.95,.67-10.17Z"/>
        <line class="cls-4" x1="1225.93" y1="985.84" x2="1217.62" y2="988.05"/>
        <line class="cls-4" x1="1230.62" y1="1003.45" x2="1222.31" y2="1005.66"/>
        <line class="cls-4" x1="1235.31" y1="1021.08" x2="1227" y2="1023.29"/>
        <line class="cls-4" x1="1240" y1="1038.69" x2="1231.7" y2="1040.91"/>
        <line class="cls-4" x1="1244.7" y1="1056.32" x2="1236.39" y2="1058.53"/>
        <line class="cls-4" x1="1249.39" y1="1073.93" x2="1241.08" y2="1076.15"/>
        <path class="cls-4" d="M1278.04,1119.69c3.49,13.09-4.28,26.48-17.36,29.96-13.06,3.48-26.45-4.28-29.94-17.37-2.67-10.04,1.29-20.31,9.21-26.08l-33.17-124.55c-1.12-4.2,1.81-8.64,6.52-9.9,2.36-.63,4.76-.35,6.67,.62,1.9,.95,3.39,2.62,3.94,4.71l33.18,124.58c9.74,1.07,18.28,7.99,20.95,18.02Z"/>
      </g>
      <g>
        <path class="cls-1" d="M1846.11,183.91c0,9.05-7.34,16.4-16.39,16.4h-80.62c-9.05,0-16.39-7.34-16.39-16.4v-16.39c0-9.06,7.34-16.39,16.39-16.39h80.62c9.06,0,16.39,7.34,16.39,16.39v16.39Z"/>
        <rect class="cls-5" x="1784.29" y="151.12" width="10.25" height="49.18"/>
        <path class="cls-5" d="M1732.71,175.71s0,31.83,111.5,15.86c0,0-2.63,10.51-25.39,8.73h-69.71s-17.07,3.14-16.39-24.59Z"/>
        <line class="cls-4" x1="1794.53" y1="151.12" x2="1794.53" y2="200.31"/>
        <line class="cls-4" x1="1784.29" y1="151.12" x2="1784.29" y2="200.31"/>
        <path class="cls-4" d="M1846.11,183.94c0,9.05-7.34,16.4-16.39,16.4h-80.62c-9.05,0-16.39-7.34-16.39-16.4v-16.39c0-9.05,7.34-16.39,16.39-16.39h80.62c9.06,0,16.39,7.34,16.39,16.39v16.39Z"/>
      </g>
      <g>
        <path class="cls-1" d="M1779.9,311.8c-6.68,13.33-34.6,12.86-62.36-1.05-27.76-13.91-44.84-35.99-38.16-49.32,6.68-13.33,34.59-12.86,62.35,1.05,27.76,13.91,44.85,35.99,38.17,49.32Z"/>
        <path class="cls-7" d="M1679.38,261.43s19.55,47.9,93.76,56.9c0,0-21.4,11.48-63.26-11.42,0,0-39.42-24.25-30.5-45.48Z"/>
        <path class="cls-7" d="M1712.54,308.24l24.19-48.27s5.36,2.55,8.76,4.48l-24.11,48.12-8.84-4.33Z"/>
        <line class="cls-4" x1="1712.62" y1="308.08" x2="1736.73" y2="259.97"/>
        <line class="cls-4" x1="1745.5" y1="264.46" x2="1721.38" y2="312.58"/>
        <path class="cls-4" d="M1779.9,311.8c-6.68,13.33-34.6,12.86-62.36-1.05-27.76-13.91-44.84-35.99-38.16-49.32,6.68-13.33,34.59-12.86,62.35,1.05,27.76,13.91,44.85,35.99,38.17,49.32Z"/>
      </g>
      <g>
        <path class="cls-1" d="M1958.8,300.63c-.14,.29-.33,.63-.53,1.06-.06,.13-.15,.24-.21,.37v.04s-.04,.06-.04,.06c-.13,.29-.31,.6-.51,.94-.95,1.73-2.37,3.99-4.29,6.64-.14,.22-.29,.38-.46,.58-10.29,13.68-34.71,35.78-85.3,36.95-41.48-50.19-28.39-90.3-24.84-98.85,.44-1.13,.74-1.71,.74-1.71,8.21-18,28.21-26.54,44.59-19.06,13.35,6.1,15.85,30.39,13.44,45.55,0,.19-.03,.34-.06,.48,.09-.12,.22-.21,.36-.35,9.91-10.71,29.2-24.13,42-18.28,15.92,7.27,22.65,26.91,15.54,44.55-.15,.32-.28,.7-.43,1.02Z"/>
        <path class="cls-7" d="M1842.63,248.42s-4.31,77.96,46.1,96.97c0,0-16.63,1.97-21.26,1.88,0,0-43.52-49.49-24.84-98.85Z"/>
        <polyline class="cls-4" points="1945.64 318.47 1914.14 304.09 1913.79 285.76 1883.93 320.97 1889.07 288.71 1867.73 303.64 1868.07 283.06 1838.05 269.36"/>
        <path class="cls-4" d="M1958.8,300.63c-.14,.29-.33,.63-.53,1.06-.06,.13-.15,.24-.21,.37v.04s-.04,.06-.04,.06c-.13,.29-.31,.6-.51,.94-.95,1.73-2.37,3.99-4.29,6.64-.14,.22-.29,.38-.46,.58-10.29,13.68-34.71,35.78-85.3,36.95-41.48-50.19-28.39-90.3-24.84-98.85,.44-1.13,.74-1.71,.74-1.71,8.21-18,28.21-26.54,44.59-19.06,13.35,6.1,15.85,30.39,13.44,45.55,0,.19-.03,.34-.06,.48,.09-.12,.22-.21,.36-.35,9.91-10.71,29.2-24.13,42-18.28,15.92,7.27,22.65,26.91,15.54,44.55-.15,.32-.28,.7-.43,1.02Z"/>
      </g>
      <g>
        <polygon class="cls-1" points="1708.44 88.91 1732.03 107.43 1729.5 110.65 1720.5 103.58 1674.06 162.71 1686.75 172.68 1685.53 174.24 1680.74 170.47 1603.98 268.2 1598.47 263.87 1591.42 272.85 1587.51 269.78 1532.94 339.27 1530.4 337.28 1584.98 267.79 1581.06 264.72 1588.12 255.74 1582.61 251.41 1659.36 153.68 1654.56 149.91 1655.78 148.36 1668.48 158.33 1714.92 99.2 1705.91 92.13 1708.44 88.91"/>
        <polygon class="cls-5" points="1726.97 103.46 1732.03 107.43 1729.5 110.65 1720.5 103.58 1674.06 162.71 1686.75 172.68 1685.53 174.24 1680.74 170.47 1603.98 268.2 1598.47 263.87 1591.42 272.85 1587.51 269.78 1597.07 257.6 1603.83 260.26 1678.42 168.65 1671.31 163.07 1719.37 101.88 1726.97 103.46"/>
        <polygon class="cls-4" points="1532.94 339.27 1587.51 269.78 1591.42 272.85 1598.47 263.87 1603.98 268.2 1680.74 170.47 1685.53 174.24 1686.75 172.68 1674.06 162.71 1716.08 109.21 1720.5 103.58 1729.5 110.65 1732.03 107.43 1708.44 88.91 1705.91 92.13 1714.92 99.2 1695.41 124.03 1668.48 158.33 1655.78 148.36 1654.56 149.91 1659.36 153.68 1653.17 161.57 1582.61 251.41 1588.12 255.74 1581.06 264.72 1584.98 267.79 1530.4 337.28 1532.94 339.27"/>
        <line class="cls-4" x1="1680.74" y1="170.47" x2="1659.36" y2="153.68"/>
        <polyline class="cls-4" points="1598.47 263.87 1593.29 259.8 1588.12 255.74"/>
        <line class="cls-4" x1="1590.16" y1="240.83" x2="1602.11" y2="250.22"/>
        <line class="cls-4" x1="1603.79" y1="223.47" x2="1615.75" y2="232.86"/>
        <line class="cls-4" x1="1593.57" y1="236.49" x2="1599.55" y2="241.19"/>
        <line class="cls-4" x1="1596.98" y1="232.15" x2="1602.95" y2="236.85"/>
        <line class="cls-4" x1="1600.38" y1="227.81" x2="1606.36" y2="232.51"/>
        <line class="cls-4" x1="1607.2" y1="219.14" x2="1613.17" y2="223.83"/>
        <line class="cls-4" x1="1610.61" y1="214.8" x2="1616.58" y2="219.49"/>
        <line class="cls-4" x1="1614.02" y1="210.46" x2="1619.99" y2="215.16"/>
        <line class="cls-4" x1="1620.83" y1="201.78" x2="1626.81" y2="206.48"/>
        <line class="cls-4" x1="1624.24" y1="197.44" x2="1630.22" y2="202.13"/>
        <line class="cls-4" x1="1627.64" y1="193.1" x2="1633.62" y2="197.8"/>
        <line class="cls-4" x1="1634.46" y1="184.43" x2="1640.43" y2="189.12"/>
        <line class="cls-4" x1="1637.87" y1="180.09" x2="1643.84" y2="184.78"/>
        <line class="cls-4" x1="1641.28" y1="175.75" x2="1647.25" y2="180.44"/>
        <line class="cls-4" x1="1617.42" y1="206.12" x2="1629.37" y2="215.51"/>
        <line class="cls-4" x1="1631.05" y1="188.76" x2="1643.01" y2="198.15"/>
        <line class="cls-4" x1="1644.68" y1="171.41" x2="1656.64" y2="180.8"/>
        <line class="cls-4" x1="1587.51" y1="269.78" x2="1584.98" y2="267.79"/>
      </g>
      <g>
        <path class="cls-1" d="M1865.95,614.91c.22,15.4-12.09,28.07-27.49,28.29-15.4,.22-28.07-12.08-28.29-27.49-.22-15.4,12.09-28.07,27.49-28.29,15.41-.22,28.07,12.08,28.29,27.49Z"/>
        <path class="cls-5" d="M1859.06,633.66c-4.96,5.31-12.38,9.42-20.6,9.54-15.42,.22-28.09-12.09-28.31-27.5-.12-7.7,2.92-14.72,7.9-19.83,0,0-7.54,23.91,9.78,36.48,0,0,3.65,3.72,10.84,4.88l2.8-39.29,.56,39.61c4.58,.17,10.26-.76,17.03-3.9Z"/>
        <line class="cls-4" x1="1834.08" y1="587.47" x2="1834.88" y2="643.25"/>
        <path class="cls-4" d="M1859.32,597.26c4.05,4.77,6.53,10.91,6.63,17.65,.2,14.29-10.39,26.23-24.23,28.05l-.78-55.02"/>
        <path class="cls-4" d="M1865.95,614.91c.22,15.4-12.09,28.07-27.49,28.29-15.4,.22-28.07-12.08-28.29-27.49-.22-15.4,12.09-28.07,27.49-28.29,15.41-.22,28.07,12.08,28.29,27.49Z"/>
      </g>
      <g>
        <path class="cls-1" d="M1830.33,480.63c-8.75,9.66-20.35,14.89-34.52,15.54,.22,30.73-6.19,52.62-19.09,65.07-9.81,9.46-20.09,10.04-22.38,10.04-.27,0-.42,0-.45-.04-12.53-.12-22.69-4.54-30.05-13.13-13.79-16.08-13.82-42.42-12.98-54.38-8.44-1.99-14.74-9.54-14.74-18.6,0-10.53,8.56-19.09,19.09-19.09s19.09,8.56,19.09,19.09c0,9.44-6.83,17.26-15.81,18.79-.73,10.77-.88,35.2,11.15,49.22,5.88,6.87,14.09,10.38,24.48,10.5,.5,0,9.05,.19,17.49-8.1,7.75-7.6,16.84-24.02,16.58-59.37-14.17-.65-25.77-5.88-34.52-15.54-23.45-25.93-18.37-74.43-18.14-76.49,.96-8.24,4.2-14.39,9.63-18.25,5-3.56,10.92-4.47,15.39-4.51,.88-2.29,3.09-3.9,5.69-3.9h2.79c3.39,0,6.14,2.75,6.14,6.18s-2.75,6.15-6.14,6.15h-2.79c-2.86,0-5.27-1.94-5.92-4.58-3.89,.08-8.86,.88-12.98,3.78-4.51,3.21-7.18,8.44-7.98,15.58-.08,.46-5.16,48.84,17.14,73.47,8.75,9.66,20.7,14.51,35.47,14.32,.27,.04,.5,.04,.73,.04,14.55,0,26.24-4.85,34.83-14.36,22.3-24.67,17.22-73.02,17.15-73.51-.81-7.1-3.52-12.37-8.02-15.54-3.55-2.56-7.71-3.47-11.26-3.7-.53,2.86-3.02,5-6.07,5h-2.75c-3.39,0-6.15-2.75-6.15-6.15s2.75-6.18,6.15-6.18h2.75c2.44,0,4.5,1.41,5.5,3.43,4.28,.19,9.5,1.26,14.05,4.47,5.46,3.86,8.67,10,9.63,18.25,.22,2.06,5.3,50.56-18.14,76.49Z"/>
        <path class="cls-5" d="M1699.64,474.38s-2.85,22.61,23.5,28.11c0,0-15.8,4.68-22.44-4.51-8.37-11.58-1.06-23.6-1.06-23.6Z"/>
        <path class="cls-5" d="M1710.85,503.72s-.49,79.82,61.75,60.97c0,0-25.12,18.79-48.76-6.59,0,0-16.5-17.33-12.98-54.38Z"/>
        <path class="cls-4" d="M1830.33,480.63c-8.75,9.66-20.35,14.89-34.52,15.54,.22,30.73-6.19,52.62-19.09,65.07-9.81,9.47-20.09,10.04-22.38,10.04-.27,0-.42,0-.45-.03-12.53-.12-22.69-4.54-30.05-13.14-13.79-16.07-13.82-42.42-12.98-54.38-8.44-1.99-14.74-9.54-14.74-18.6,0-10.53,8.56-19.09,19.09-19.09s19.09,8.56,19.09,19.09c0,9.44-6.83,17.26-15.81,18.79-.73,10.77-.88,35.21,11.15,49.22,5.88,6.87,14.09,10.38,24.48,10.5,.5,0,9.05,.19,17.49-8.1,7.75-7.6,16.84-24.01,16.58-59.37-14.17-.65-25.77-5.88-34.52-15.54-23.45-25.93-18.37-74.43-18.14-76.49,.96-8.24,4.2-14.39,9.63-18.25,5-3.56,10.92-4.47,15.39-4.51,.88-2.29,3.09-3.9,5.69-3.9h2.79c3.39,0,6.14,2.75,6.14,6.18s-2.75,6.15-6.14,6.15h-2.79c-2.86,0-5.27-1.94-5.92-4.58-3.89,.08-8.86,.88-12.98,3.78-4.51,3.21-7.18,8.44-7.98,15.58-.08,.46-5.16,48.84,17.14,73.47,8.75,9.66,20.7,14.51,35.47,14.32,.27,.03,.5,.03,.73,.03,14.55,0,26.24-4.85,34.83-14.36,22.3-24.67,17.22-73.01,17.15-73.51-.81-7.1-3.52-12.37-8.02-15.54-3.55-2.56-7.71-3.47-11.26-3.7-.53,2.86-3.02,5-6.07,5h-2.75c-3.39,0-6.15-2.75-6.15-6.15s2.75-6.18,6.15-6.18h2.75c2.44,0,4.5,1.41,5.5,3.43,4.28,.19,9.5,1.27,14.05,4.47,5.46,3.86,8.67,10.01,9.63,18.25,.22,2.06,5.3,50.56-18.14,76.49Z"/>
        <line class="cls-4" x1="1710.85" y1="503.72" x2="1718.48" y2="503.91"/>
        <circle class="cls-4" cx="1715.72" cy="484.27" r="11.35"/>
        <line class="cls-4" x1="1760.53" y1="381.38" x2="1760.29" y2="385.24"/>
        <line class="cls-4" x1="1824.79" y1="381.41" x2="1825.36" y2="385.31"/>
      </g>
      <g>
        <path class="cls-1" d="M1973.38,515.33c0,7.42-4.85,13.44-10.81,13.44h-39.01v39.03c0,5.96-6.04,10.79-13.46,10.79-3.73,0-7.07-1.21-9.52-3.16-2.44-1.96-3.94-4.65-3.94-7.63v-39.03h-39.03c-2.98,0-5.67-1.5-7.64-3.95-1.94-2.42-3.16-5.78-3.16-9.49,0-7.44,4.83-13.46,10.79-13.46h39.03v-39.04c0-5.96,6.02-10.79,13.46-10.79,3.71,0,7.07,1.21,9.51,3.16,2.45,1.96,3.95,4.65,3.95,7.63v39.04h39.01c2.98,0,5.67,1.5,7.63,3.94,1.96,2.42,3.17,5.81,3.17,9.52Z"/>
        <path class="cls-7" d="M1849.97,524.83h53.4v52.32s-7.76-2.46-6.64-14.77l-.1-33.6h-34.57s-7.72,1.59-12.1-3.95Z"/>
        <path class="cls-7" d="M1896.64,501.87h6.74v-48.37s-6.74,3.1-6.74,9.33v39.04Z"/>
        <path class="cls-4" d="M1973.38,515.33c0,7.42-4.85,13.44-10.81,13.44h-39.01v39.03c0,5.96-6.04,10.79-13.46,10.79-3.73,0-7.07-1.21-9.52-3.16-2.44-1.96-3.94-4.65-3.94-7.63v-39.03h-39.03c-2.98,0-5.67-1.5-7.64-3.95-1.94-2.42-3.16-5.78-3.16-9.49,0-7.44,4.83-13.46,10.79-13.46h39.03v-39.04c0-5.96,6.02-10.79,13.46-10.79,3.71,0,7.07,1.21,9.51,3.16,2.45,1.96,3.95,4.65,3.95,7.63v39.04h39.01c2.98,0,5.67,1.5,7.63,3.94,1.96,2.42,3.17,5.81,3.17,9.52Z"/>
      </g>
      <g>
        <polygon class="cls-1" points="2012.86 559.59 2036.45 578.11 2033.91 581.33 2024.91 574.26 1978.47 633.39 1991.17 643.36 1989.94 644.92 1985.15 641.15 1908.4 738.88 1902.89 734.55 1895.83 743.53 1891.92 740.46 1837.35 809.95 1834.82 807.96 1889.39 738.47 1885.48 735.39 1892.53 726.42 1887.03 722.09 1963.77 624.36 1958.98 620.59 1960.2 619.04 1972.89 629.01 2019.33 569.87 2010.33 562.81 2012.86 559.59"/>
        <polygon class="cls-5" points="2031.39 574.14 2036.45 578.11 2033.91 581.33 2024.91 574.26 1978.47 633.39 1991.17 643.36 1989.94 644.92 1985.15 641.15 1908.4 738.88 1902.89 734.55 1895.83 743.53 1891.92 740.46 1901.49 728.28 1908.24 730.94 1982.83 639.33 1975.73 633.75 2023.78 572.56 2031.39 574.14"/>
        <polygon class="cls-4" points="1837.35 809.95 1891.92 740.46 1895.83 743.53 1902.89 734.55 1908.4 738.88 1985.15 641.15 1989.94 644.92 1991.17 643.36 1978.47 633.39 2020.5 579.89 2024.91 574.26 2033.91 581.33 2036.45 578.11 2012.86 559.59 2010.33 562.81 2019.33 569.87 1999.83 594.71 1972.89 629.01 1960.2 619.04 1958.98 620.59 1963.77 624.36 1957.58 632.24 1887.03 722.09 1892.53 726.42 1885.48 735.39 1889.39 738.47 1834.82 807.96 1837.35 809.95"/>
        <polyline class="cls-4" points="1902.89 734.55 1897.71 730.48 1892.53 726.42"/>
        <line class="cls-4" x1="1894.57" y1="711.51" x2="1906.53" y2="720.9"/>
        <line class="cls-4" x1="1908.21" y1="694.15" x2="1920.16" y2="703.54"/>
        <line class="cls-4" x1="1897.98" y1="707.17" x2="1903.96" y2="711.87"/>
        <line class="cls-4" x1="1901.39" y1="702.83" x2="1907.37" y2="707.52"/>
        <line class="cls-4" x1="1904.8" y1="698.49" x2="1910.77" y2="703.19"/>
        <line class="cls-4" x1="1911.61" y1="689.82" x2="1917.59" y2="694.51"/>
        <line class="cls-4" x1="1915.02" y1="685.48" x2="1921" y2="690.17"/>
        <line class="cls-4" x1="1918.43" y1="681.14" x2="1924.41" y2="685.84"/>
        <line class="cls-4" x1="1891.92" y1="740.46" x2="1889.39" y2="738.47"/>
      </g>
      <g>
        <path class="cls-1" d="M1935.26,892.55c4.65,9.75,.52,21.44-9.24,26.09-9.76,4.66-21.44,.52-26.09-9.23-4.66-9.75-.52-21.44,9.24-26.09,9.76-4.66,21.44-.52,26.1,9.23Z"/>
        <path class="cls-5" d="M1936.36,906.52c-1.61,4.84-5.13,9.64-10.34,12.12-9.77,4.66-21.45,.52-26.11-9.24-2.33-4.88-2.46-10.24-.78-14.96,0,0,2.2,17.45,16.93,20.39,0,0,3.42,1.3,8.34-.06l-9.73-25.87,11.97,25.09c2.97-1.24,6.32-3.49,9.71-7.48Z"/>
        <line class="cls-4" x1="1906.89" y1="884.4" x2="1923.75" y2="919.72"/>
        <path class="cls-4" d="M1925.86,883.24c3.98,1.85,7.36,5.05,9.4,9.32,4.32,9.05,1.07,19.77-7.23,24.99l-16.63-34.85"/>
        <path class="cls-4" d="M1935.26,892.55c4.65,9.75,.52,21.44-9.24,26.09-9.76,4.66-21.44,.52-26.09-9.23-4.66-9.75-.52-21.44,9.24-26.09,9.76-4.66,21.44-.52,26.1,9.23Z"/>
      </g>
      <g>
        <path class="cls-1" d="M1905.69,1092.34c3.49,13.09-4.28,26.48-17.36,29.97-13.06,3.48-26.45-4.29-29.94-17.37-2.67-10.04,1.29-20.31,9.21-26.08l-33.17-124.55c-1.12-4.2,1.81-8.64,6.52-9.9,2.36-.63,4.76-.35,6.67,.62,1.9,.94,3.39,2.62,3.94,4.7l33.18,124.58c9.74,1.07,18.28,7.99,20.95,18.02Z"/>
        <path class="cls-7" d="M1840.95,944.41c-2.82,.98-7.64,5.7-6.52,9.9l33.17,124.55c-7.91,5.77-11.88,16.05-9.21,26.08,3.49,13.08,16.88,20.84,29.94,17.37,13.08-3.49,20.85-16.88,17.36-29.97-.21-.81-.47-1.59-.76-2.35,0,0-1.95,21.31-18.32,25.81,0,0-16.84,4.04-22.5-12,0,0-2.32-18.88,9.21-20.54l-33.03-128.68s-.88-2.95,.67-10.17Z"/>
        <line class="cls-4" x1="1881.77" y1="1064.21" x2="1873.46" y2="1066.42"/>
        <line class="cls-4" x1="1853.61" y1="958.49" x2="1845.3" y2="960.7"/>
        <line class="cls-4" x1="1858.3" y1="976.11" x2="1849.99" y2="978.32"/>
        <line class="cls-4" x1="1863" y1="993.73" x2="1854.69" y2="995.94"/>
        <line class="cls-4" x1="1867.69" y1="1011.35" x2="1859.38" y2="1013.56"/>
        <line class="cls-4" x1="1872.38" y1="1028.97" x2="1864.07" y2="1031.18"/>
        <line class="cls-4" x1="1877.07" y1="1046.59" x2="1868.76" y2="1048.8"/>
        <path class="cls-4" d="M1905.73,1092.34c3.49,13.09-4.28,26.48-17.36,29.97-13.06,3.48-26.45-4.29-29.94-17.37-2.67-10.04,1.29-20.31,9.21-26.08l-33.17-124.55c-1.12-4.2,1.81-8.64,6.52-9.9,2.36-.63,4.76-.35,6.67,.62,1.9,.94,3.39,2.62,3.94,4.7l33.18,124.58c9.74,1.07,18.28,7.99,20.95,18.02Z"/>
      </g>
      <g>
        <path class="cls-1" d="M1684.38,46.77c0,6.88-5.58,12.46-12.46,12.46h-61.28c-6.88,0-12.46-5.58-12.46-12.46v-12.46c0-6.88,5.58-12.46,12.46-12.46h61.28c6.88,0,12.46,5.58,12.46,12.46v12.46Z"/>
        <rect class="cls-5" x="1637.39" y="21.85" width="7.79" height="37.39"/>
        <path class="cls-5" d="M1598.19,40.54s0,24.19,84.75,12.06c0,0-2,7.99-19.3,6.64h-52.99s-12.97,2.39-12.46-18.69Z"/>
        <line class="cls-4" x1="1645.18" y1="21.85" x2="1645.18" y2="59.24"/>
        <line class="cls-4" x1="1637.39" y1="21.85" x2="1637.39" y2="59.24"/>
        <path class="cls-4" d="M1684.38,46.8c0,6.89-5.58,12.47-12.46,12.47h-61.28c-6.88,0-12.46-5.58-12.46-12.47v-12.46c0-6.89,5.58-12.46,12.46-12.46h61.28c6.88,0,12.46,5.58,12.46,12.46v12.46Z"/>
      </g>
      <g>
        <path class="cls-1" d="M1459.43,73.9c-.14,.29-.33,.63-.53,1.06-.06,.13-.15,.24-.21,.37v.04s-.04,.06-.04,.06c-.13,.29-.31,.6-.51,.94-.95,1.73-2.37,3.99-4.29,6.64-.14,.22-.29,.38-.46,.58-10.29,13.68-34.71,35.78-85.3,36.95-41.48-50.19-28.39-90.3-24.84-98.85,.44-1.13,.74-1.71,.74-1.71,8.21-18,28.21-26.54,44.59-19.06,13.35,6.1,15.85,30.39,13.44,45.55,0,.19-.03,.34-.06,.48,.09-.12,.22-.22,.36-.35,9.91-10.71,29.2-24.13,42-18.28,15.92,7.26,22.65,26.91,15.54,44.55-.15,.32-.28,.7-.43,1.02Z"/>
        <path class="cls-7" d="M1343.26,21.69s-4.31,77.96,46.1,96.97c0,0-16.63,1.97-21.26,1.88,0,0-43.52-49.49-24.84-98.85Z"/>
        <polyline class="cls-4" points="1446.27 91.74 1414.78 77.36 1414.42 59.03 1384.56 94.24 1389.71 61.98 1368.37 76.91 1368.7 56.33 1338.69 42.63"/>
        <path class="cls-4" d="M1459.43,73.9c-.14,.29-.33,.63-.53,1.06-.06,.13-.15,.24-.21,.37v.04s-.04,.06-.04,.06c-.13,.29-.31,.6-.51,.94-.95,1.73-2.37,3.99-4.29,6.64-.14,.22-.29,.38-.46,.58-10.29,13.68-34.71,35.78-85.3,36.95-41.48-50.19-28.39-90.3-24.84-98.85,.44-1.13,.74-1.71,.74-1.71,8.21-18,28.21-26.54,44.59-19.06,13.35,6.1,15.85,30.39,13.44,45.55,0,.19-.03,.34-.06,.48,.09-.12,.22-.22,.36-.35,9.91-10.71,29.2-24.13,42-18.28,15.92,7.26,22.65,26.91,15.54,44.55-.15,.32-.28,.7-.43,1.02Z"/>
      </g>
      <g>
        <path class="cls-1" d="M1240.33,26.77c4.65,9.75,.52,21.44-9.24,26.09-9.76,4.66-21.44,.52-26.09-9.23-4.66-9.75-.52-21.44,9.24-26.09,9.76-4.66,21.44-.52,26.1,9.23Z"/>
        <path class="cls-5" d="M1241.43,40.75c-1.61,4.84-5.13,9.64-10.34,12.12-9.77,4.66-21.45,.52-26.11-9.24-2.33-4.88-2.46-10.24-.78-14.96,0,0,2.2,17.45,16.93,20.39,0,0,3.42,1.3,8.34-.06l-9.73-25.87,11.97,25.09c2.97-1.24,6.32-3.49,9.71-7.48Z"/>
        <line class="cls-4" x1="1211.96" y1="18.62" x2="1228.83" y2="53.95"/>
        <path class="cls-4" d="M1230.93,17.46c3.98,1.85,7.36,5.05,9.4,9.32,4.32,9.05,1.07,19.77-7.23,24.99l-16.63-34.85"/>
        <path class="cls-4" d="M1240.33,26.77c4.65,9.75,.52,21.44-9.24,26.09-9.76,4.66-21.44,.52-26.09-9.23-4.66-9.75-.52-21.44,9.24-26.09,9.76-4.66,21.44-.52,26.1,9.23Z"/>
      </g>
      <g>
        <path class="cls-1" d="M1594.49,124.79c0,7.42-4.85,13.44-10.81,13.44h-39.01v39.04c0,5.96-6.04,10.78-13.46,10.78-3.73,0-7.07-1.21-9.52-3.16-2.44-1.96-3.94-4.65-3.94-7.63v-39.04h-39.03c-2.98,0-5.67-1.5-7.64-3.94-1.94-2.42-3.16-5.78-3.16-9.5,0-7.44,4.83-13.46,10.79-13.46h39.03v-39.04c0-5.96,6.02-10.78,13.46-10.78,3.71,0,7.07,1.21,9.51,3.16,2.45,1.96,3.95,4.65,3.95,7.63v39.04h39.01c2.98,0,5.67,1.5,7.63,3.94,1.96,2.42,3.17,5.81,3.17,9.52Z"/>
        <path class="cls-7" d="M1471.08,134.28h53.4v52.32s-7.76-2.46-6.64-14.77l-.1-33.6h-34.57s-7.72,1.59-12.1-3.94Z"/>
        <path class="cls-7" d="M1517.75,111.33h6.74V62.96s-6.74,3.1-6.74,9.33v39.04Z"/>
        <path class="cls-4" d="M1594.49,124.79c0,7.42-4.85,13.44-10.81,13.44h-39.01v39.04c0,5.96-6.04,10.78-13.46,10.78-3.73,0-7.07-1.21-9.52-3.16-2.44-1.96-3.94-4.65-3.94-7.63v-39.04h-39.03c-2.98,0-5.67-1.5-7.64-3.94-1.94-2.42-3.16-5.78-3.16-9.5,0-7.44,4.83-13.46,10.79-13.46h39.03v-39.04c0-5.96,6.02-10.78,13.46-10.78,3.71,0,7.07,1.21,9.51,3.16,2.45,1.96,3.95,4.65,3.95,7.63v39.04h39.01c2.98,0,5.67,1.5,7.63,3.94,1.96,2.42,3.17,5.81,3.17,9.52Z"/>
      </g>
      <g>
        <path class="cls-1" d="M1977.21,52.83c-8.75,9.66-20.35,14.89-34.52,15.54,.22,30.73-6.19,52.62-19.09,65.07-9.82,9.46-20.09,10.04-22.38,10.04-.27,0-.42,0-.45-.04-12.53-.12-22.69-4.54-30.05-13.13-13.79-16.08-13.82-42.42-12.98-54.38-8.44-1.98-14.74-9.54-14.74-18.6,0-10.53,8.56-19.09,19.09-19.09s19.09,8.56,19.09,19.09c0,9.43-6.83,17.26-15.81,18.79-.73,10.77-.88,35.2,11.15,49.22,5.88,6.87,14.09,10.39,24.48,10.5,.5,0,9.05,.19,17.49-8.1,7.75-7.6,16.84-24.02,16.58-59.37-14.17-.65-25.77-5.88-34.52-15.54-23.45-25.93-18.37-74.43-18.14-76.49,.96-8.24,4.2-14.39,9.62-18.25,5-3.56,10.92-4.47,15.39-4.51,.88-2.29,3.09-3.9,5.69-3.9h2.79c3.39,0,6.14,2.75,6.14,6.18s-2.75,6.15-6.14,6.15h-2.79c-2.86,0-5.27-1.94-5.92-4.58-3.89,.08-8.86,.88-12.98,3.78-4.51,3.21-7.18,8.44-7.98,15.58-.08,.46-5.16,48.84,17.14,73.47,8.75,9.66,20.7,14.5,35.47,14.32,.27,.04,.5,.04,.73,.04,14.55,0,26.24-4.85,34.83-14.36,22.3-24.68,17.22-73.02,17.15-73.51-.81-7.1-3.52-12.37-8.02-15.54-3.55-2.56-7.71-3.47-11.26-3.7-.53,2.86-3.02,5-6.07,5h-2.75c-3.39,0-6.15-2.75-6.15-6.15s2.75-6.18,6.15-6.18h2.75c2.44,0,4.5,1.41,5.5,3.43,4.28,.19,9.5,1.26,14.05,4.47,5.46,3.86,8.67,10,9.63,18.25,.22,2.06,5.3,50.56-18.14,76.49Z"/>
        <path class="cls-5" d="M1846.52,46.59s-2.85,22.62,23.5,28.11c0,0-15.8,4.68-22.44-4.51-8.37-11.58-1.06-23.6-1.06-23.6Z"/>
        <path class="cls-5" d="M1857.73,75.93s-.49,79.82,61.75,60.97c0,0-25.12,18.79-48.76-6.59,0,0-16.5-17.33-12.98-54.38Z"/>
        <path class="cls-4" d="M1977.21,52.84c-8.75,9.66-20.35,14.89-34.52,15.54,.22,30.73-6.19,52.62-19.09,65.07-9.82,9.47-20.09,10.04-22.38,10.04-.27,0-.42,0-.45-.03-12.53-.12-22.69-4.54-30.05-13.14-13.79-16.07-13.82-42.42-12.98-54.38-8.44-1.99-14.74-9.54-14.74-18.6,0-10.53,8.56-19.09,19.09-19.09s19.09,8.56,19.09,19.09c0,9.44-6.83,17.26-15.81,18.79-.73,10.77-.88,35.21,11.15,49.22,5.88,6.87,14.09,10.38,24.48,10.5,.5,0,9.05,.19,17.49-8.1,7.75-7.6,16.84-24.01,16.58-59.37-14.17-.65-25.77-5.88-34.52-15.54-23.45-25.93-18.37-74.43-18.14-76.49,.96-8.24,4.2-14.39,9.62-18.25,5-3.56,10.92-4.47,15.39-4.51,.88-2.29,3.09-3.9,5.69-3.9h2.79c3.39,0,6.14,2.75,6.14,6.18s-2.75,6.15-6.14,6.15h-2.79c-2.86,0-5.27-1.94-5.92-4.58-3.89,.08-8.86,.88-12.98,3.78-4.51,3.21-7.18,8.44-7.98,15.58-.08,.46-5.16,48.84,17.14,73.47,8.75,9.66,20.7,14.51,35.47,14.32,.27,.03,.5,.03,.73,.03,14.55,0,26.24-4.85,34.83-14.36,22.3-24.67,17.22-73.01,17.15-73.51-.81-7.1-3.52-12.37-8.02-15.54-3.55-2.56-7.71-3.47-11.26-3.7-.53,2.86-3.02,5-6.07,5h-2.75c-3.39,0-6.15-2.75-6.15-6.15s2.75-6.18,6.15-6.18h2.75c2.44,0,4.5,1.41,5.5,3.43,4.28,.19,9.5,1.27,14.05,4.47,5.46,3.86,8.67,10.01,9.63,18.25,.22,2.06,5.3,50.56-18.14,76.49Z"/>
        <line class="cls-4" x1="1857.73" y1="75.94" x2="1865.37" y2="76.13"/>
        <path class="cls-4" d="M1873.96,56.48c0,6.27-5.08,11.35-11.35,11.35s-11.35-5.08-11.35-11.35,5.08-11.35,11.35-11.35,11.35,5.08,11.35,11.35Z"/>
      </g>
      <g>
        <path class="cls-1" d="M1799.45,64.61c3.49,13.09-4.28,26.48-17.36,29.97-13.06,3.48-26.45-4.29-29.94-17.37-2.67-10.04,1.29-20.31,9.21-26.08l-33.17-124.55c-1.12-4.2,1.81-8.64,6.52-9.9,2.36-.63,4.76-.35,6.67,.62,1.9,.94,3.39,2.62,3.94,4.7l33.18,124.58c9.74,1.07,18.28,7.99,20.95,18.02Z"/>
        <path class="cls-7" d="M1734.71-83.32c-2.82,.98-7.64,5.7-6.52,9.9l33.17,124.55c-7.91,5.77-11.88,16.05-9.21,26.08,3.49,13.08,16.88,20.84,29.94,17.37,13.08-3.49,20.85-16.88,17.36-29.97-.21-.81-.47-1.59-.76-2.35,0,0-1.95,21.31-18.32,25.81,0,0-16.84,4.04-22.51-12,0,0-2.32-18.88,9.21-20.54l-33.03-128.68s-.88-2.95,.67-10.17Z"/>
        <line class="cls-4" x1="1775.52" y1="36.48" x2="1767.22" y2="38.69"/>
        <line class="cls-4" x1="1766.14" y1="1.24" x2="1757.83" y2="3.46"/>
        <line class="cls-4" x1="1770.83" y1="18.86" x2="1762.52" y2="21.08"/>
        <path class="cls-4" d="M1799.49,64.61c3.49,13.09-4.28,26.48-17.36,29.97-13.06,3.48-26.45-4.29-29.94-17.37-2.67-10.04,1.29-20.31,9.21-26.08l-33.17-124.55c-1.12-4.2,1.81-8.64,6.52-9.9,2.36-.63,4.76-.35,6.67,.62,1.9,.94,3.39,2.62,3.94,4.7l33.18,124.58c9.74,1.07,18.28,7.99,20.95,18.02Z"/>
      </g>
      <g>
        <path class="cls-1" d="M1070.73,18.84c0,6.88-5.58,12.46-12.46,12.46h-61.28c-6.88,0-12.46-5.58-12.46-12.46V6.38c0-6.89,5.58-12.46,12.46-12.46h61.28c6.88,0,12.46,5.58,12.46,12.46v12.46Z"/>
        <rect class="cls-5" x="1023.73" y="-6.09" width="7.79" height="37.39"/>
        <path class="cls-5" d="M984.53,12.61s0,24.19,84.75,12.06c0,0-2,7.99-19.3,6.64h-52.99s-12.97,2.39-12.46-18.69Z"/>
        <line class="cls-4" x1="1031.52" y1="-6.09" x2="1031.52" y2="31.3"/>
        <line class="cls-4" x1="1023.73" y1="-6.09" x2="1023.73" y2="31.3"/>
        <path class="cls-4" d="M1070.73,18.86c0,6.89-5.58,12.47-12.46,12.47h-61.28c-6.88,0-12.46-5.58-12.46-12.47V6.4c0-6.89,5.58-12.46,12.46-12.46h61.28c6.88,0,12.46,5.58,12.46,12.46v12.46Z"/>
      </g>
      <g>
        <path class="cls-1" d="M770.67,22.16c-6.68,13.33-34.6,12.86-62.36-1.05-27.76-13.91-44.84-35.99-38.16-49.32,6.68-13.33,34.59-12.86,62.35,1.05,27.76,13.91,44.85,35.99,38.17,49.32Z"/>
        <path class="cls-7" d="M670.15-28.22s19.55,47.9,93.76,56.91c0,0-21.4,11.48-63.26-11.42,0,0-39.42-24.25-30.5-45.48Z"/>
        <path class="cls-7" d="M703.31,18.6l24.19-48.27s5.36,2.55,8.76,4.48l-24.11,48.12-8.84-4.33Z"/>
        <line class="cls-4" x1="703.39" y1="18.44" x2="727.5" y2="-29.67"/>
        <line class="cls-4" x1="736.26" y1="-25.19" x2="712.15" y2="22.93"/>
        <path class="cls-4" d="M770.67,22.16c-6.68,13.33-34.6,12.86-62.36-1.05-27.76-13.91-44.84-35.99-38.16-49.32,6.68-13.33,34.59-12.86,62.35,1.05,27.76,13.91,44.85,35.99,38.17,49.32Z"/>
      </g>
      <g>
        <path class="cls-1" d="M934.54,29.05c-.13,.29-.33,.63-.53,1.06-.06,.14-.15,.24-.21,.37v.04s-.04,.06-.04,.06c-.13,.29-.31,.6-.51,.94-.95,1.73-2.37,3.99-4.29,6.64-.14,.22-.29,.38-.46,.58-10.29,13.68-34.71,35.78-85.3,36.95-41.48-50.19-28.39-90.3-24.84-98.85,.44-1.13,.74-1.71,.74-1.71,8.21-18,28.21-26.54,44.59-19.06,13.35,6.1,15.85,30.39,13.44,45.55,0,.19-.03,.34-.06,.48,.09-.12,.22-.22,.36-.35,9.91-10.71,29.2-24.13,42-18.28,15.92,7.26,22.65,26.91,15.54,44.55-.15,.32-.28,.7-.43,1.02Z"/>
        <path class="cls-7" d="M818.37-23.15s-4.31,77.96,46.1,96.97c0,0-16.63,1.97-21.26,1.88,0,0-43.52-49.49-24.84-98.85Z"/>
        <polyline class="cls-4" points="921.38 46.89 889.89 32.52 889.53 14.18 859.67 49.4 864.82 17.14 843.48 32.06 843.81 11.49 813.8 -2.22"/>
        <path class="cls-4" d="M934.54,29.05c-.13,.29-.33,.63-.53,1.06-.06,.14-.15,.24-.21,.37v.04s-.04,.06-.04,.06c-.13,.29-.31,.6-.51,.94-.95,1.73-2.37,3.99-4.29,6.64-.14,.22-.29,.38-.46,.58-10.29,13.68-34.71,35.78-85.3,36.95-41.48-50.19-28.39-90.3-24.84-98.85,.44-1.13,.74-1.71,.74-1.71,8.21-18,28.21-26.54,44.59-19.06,13.35,6.1,15.85,30.39,13.44,45.55,0,.19-.03,.34-.06,.48,.09-.12,.22-.22,.36-.35,9.91-10.71,29.2-24.13,42-18.28,15.92,7.26,22.65,26.91,15.54,44.55-.15,.32-.28,.7-.43,1.02Z"/>
      </g>
      <g>
        <polygon class="cls-1" points="664.79 -173.33 688.38 -154.81 685.85 -151.59 676.84 -158.66 630.41 -99.53 643.1 -89.56 641.88 -88 637.08 -91.77 560.33 5.96 554.82 1.63 547.77 10.61 543.86 7.54 489.28 77.03 486.75 75.04 541.32 5.55 537.41 2.47 544.46 -6.5 538.96 -10.83 615.7 -108.56 610.91 -112.33 612.13 -113.87 624.82 -103.91 671.26 -163.04 662.26 -170.11 664.79 -173.33"/>
        <polygon class="cls-5" points="683.32 -158.78 688.38 -154.81 685.85 -151.59 676.84 -158.66 630.41 -99.53 643.1 -89.56 641.88 -88 637.08 -91.77 560.33 5.96 554.82 1.63 547.77 10.61 543.86 7.54 553.42 -4.64 560.18 -1.98 634.77 -93.59 627.66 -99.17 675.72 -160.36 683.32 -158.78"/>
        <polygon class="cls-4" points="489.28 77.03 543.86 7.54 547.77 10.61 554.82 1.63 560.33 5.96 637.08 -91.77 641.88 -88 643.1 -89.56 630.41 -99.53 672.43 -153.03 676.84 -158.66 685.85 -151.59 688.38 -154.81 664.79 -173.33 662.26 -170.11 671.26 -163.04 651.76 -138.21 624.82 -103.91 612.13 -113.87 610.91 -112.33 615.7 -108.56 609.52 -100.67 538.96 -10.83 544.46 -6.5 537.41 2.47 541.32 5.55 486.75 75.04 489.28 77.03"/>
        <polyline class="cls-4" points="554.82 1.63 549.64 -2.44 544.46 -6.5"/>
        <line class="cls-4" x1="543.86" y1="7.54" x2="541.32" y2="5.55"/>
      </g>
      <g>
        <path class="cls-1" d="M621.51,48.43c4.65,9.75,.52,21.44-9.24,26.09-9.76,4.66-21.44,.52-26.09-9.23-4.66-9.75-.52-21.44,9.24-26.09,9.76-4.66,21.44-.52,26.1,9.23Z"/>
        <path class="cls-5" d="M622.62,62.4c-1.61,4.84-5.13,9.64-10.34,12.12-9.77,4.66-21.45,.52-26.11-9.24-2.33-4.88-2.46-10.24-.78-14.96,0,0,2.2,17.45,16.93,20.39,0,0,3.42,1.3,8.34-.06l-9.73-25.87,11.97,25.09c2.97-1.24,6.32-3.49,9.71-7.48Z"/>
        <line class="cls-4" x1="593.15" y1="40.28" x2="610.01" y2="75.6"/>
        <path class="cls-4" d="M612.11,39.12c3.98,1.85,7.36,5.05,9.4,9.32,4.32,9.05,1.07,19.77-7.23,24.99l-16.63-34.85"/>
        <path class="cls-4" d="M621.51,48.43c4.65,9.75,.52,21.44-9.24,26.09-9.76,4.66-21.44,.52-26.09-9.23-4.66-9.75-.52-21.44,9.24-26.09,9.76-4.66,21.44-.52,26.1,9.23Z"/>
      </g>
      <g>
        <path class="cls-1" d="M334.13,191.36c3.49,13.09-4.28,26.48-17.36,29.97-13.06,3.48-26.45-4.29-29.94-17.37-2.67-10.04,1.29-20.31,9.21-26.08l-33.17-124.55c-1.12-4.2,1.81-8.64,6.52-9.9,2.36-.63,4.76-.35,6.67,.62,1.9,.95,3.39,2.62,3.94,4.7l33.18,124.58c9.74,1.07,18.28,7.99,20.95,18.02Z"/>
        <path class="cls-7" d="M269.39,43.42c-2.82,.98-7.64,5.7-6.52,9.9l33.17,124.55c-7.91,5.77-11.88,16.05-9.21,26.08,3.49,13.08,16.88,20.84,29.94,17.37,13.08-3.49,20.85-16.88,17.36-29.97-.21-.81-.47-1.59-.76-2.35,0,0-1.95,21.31-18.32,25.81,0,0-16.84,4.04-22.51-12,0,0-2.32-18.88,9.21-20.54l-33.03-128.68s-.88-2.95,.67-10.17Z"/>
        <line class="cls-4" x1="310.21" y1="163.22" x2="301.9" y2="165.44"/>
        <line class="cls-4" x1="282.05" y1="57.5" x2="273.74" y2="59.71"/>
        <line class="cls-4" x1="286.75" y1="75.12" x2="278.43" y2="77.33"/>
        <line class="cls-4" x1="291.44" y1="92.74" x2="283.13" y2="94.96"/>
        <line class="cls-4" x1="296.13" y1="110.36" x2="287.82" y2="112.58"/>
        <line class="cls-4" x1="300.82" y1="127.99" x2="292.51" y2="130.2"/>
        <line class="cls-4" x1="305.51" y1="145.6" x2="297.2" y2="147.82"/>
        <path class="cls-4" d="M334.17,191.36c3.49,13.09-4.28,26.48-17.36,29.97-13.06,3.48-26.45-4.29-29.94-17.37-2.67-10.04,1.29-20.31,9.21-26.08l-33.17-124.55c-1.12-4.2,1.81-8.64,6.52-9.9,2.36-.63,4.76-.35,6.67,.62,1.9,.95,3.39,2.62,3.94,4.7l33.18,124.58c9.74,1.07,18.28,7.99,20.95,18.02Z"/>
      </g>
      <g>
        <path class="cls-1" d="M1009,1044.17h61.27c6.88,0,12.46,5.58,12.46,12.46v12.46c0,6.88-5.58,12.46-12.46,12.46h-61.27c-6.88,0-12.46-5.58-12.46-12.46v-12.46c0-6.88,5.58-12.46,12.46-12.46Z"/>
        <rect class="cls-5" x="1035.74" y="1044.17" width="7.79" height="37.39"/>
        <path class="cls-5" d="M996.53,1062.86s0,24.19,84.75,12.06c0,0-2,7.99-19.3,6.64h-52.99s-12.97,2.39-12.46-18.69Z"/>
        <line class="cls-4" x1="1043.53" y1="1044.17" x2="1043.53" y2="1081.56"/>
        <line class="cls-4" x1="1035.74" y1="1044.17" x2="1035.74" y2="1081.56"/>
        <path class="cls-4" d="M1082.73,1069.12c0,6.89-5.58,12.47-12.46,12.47h-61.28c-6.88,0-12.46-5.58-12.46-12.47v-12.46c0-6.89,5.58-12.46,12.46-12.46h61.28c6.88,0,12.46,5.58,12.46,12.46v12.46Z"/>
      </g>
      <g>
        <path class="cls-1" d="M924.56,1048.84c4.65,9.75,.52,21.44-9.24,26.09-9.76,4.66-21.44,.52-26.09-9.23-4.66-9.75-.52-21.44,9.24-26.09,9.76-4.66,21.44-.52,26.1,9.23Z"/>
        <path class="cls-5" d="M925.67,1062.82c-1.61,4.84-5.13,9.64-10.34,12.12-9.77,4.66-21.45,.52-26.11-9.24-2.33-4.88-2.46-10.24-.78-14.96,0,0,2.2,17.45,16.93,20.39,0,0,3.42,1.3,8.34-.06l-9.73-25.87,11.97,25.09c2.97-1.24,6.32-3.49,9.71-7.48Z"/>
        <line class="cls-4" x1="896.2" y1="1040.69" x2="913.06" y2="1076.02"/>
        <path class="cls-4" d="M915.16,1039.53c3.98,1.85,7.36,5.05,9.4,9.32,4.32,9.05,1.07,19.77-7.23,24.99l-16.63-34.85"/>
        <path class="cls-4" d="M924.56,1048.84c4.65,9.75,.52,21.44-9.24,26.09-9.76,4.66-21.44,.52-26.09-9.23-4.66-9.75-.52-21.44,9.24-26.09,9.76-4.66,21.44-.52,26.1,9.23Z"/>
      </g>
      <g>
        <path class="cls-1" d="M741.49,1026.12h61.27c6.88,0,12.46,5.58,12.46,12.46v12.46c0,6.88-5.58,12.46-12.46,12.46h-61.27c-6.88,0-12.46-5.58-12.46-12.46v-12.46c0-6.88,5.58-12.46,12.46-12.46Z"/>
        <rect class="cls-5" x="768.23" y="1026.12" width="7.79" height="37.39"/>
        <path class="cls-5" d="M729.03,1044.81s0,24.19,84.75,12.06c0,0-2,7.99-19.3,6.64h-52.99s-12.97,2.39-12.46-18.69Z"/>
        <line class="cls-4" x1="776.02" y1="1026.12" x2="776.02" y2="1063.51"/>
        <line class="cls-4" x1="768.23" y1="1026.12" x2="768.23" y2="1063.51"/>
        <path class="cls-4" d="M815.22,1051.07c0,6.89-5.58,12.47-12.46,12.47h-61.28c-6.88,0-12.46-5.58-12.46-12.47v-12.46c0-6.89,5.58-12.46,12.46-12.46h61.28c6.88,0,12.46,5.58,12.46,12.46v12.46Z"/>
      </g>
      <g>
        <path class="cls-1" d="M333.15,986.22c-6.68,13.33-34.6,12.86-62.36-1.05-27.76-13.91-44.84-35.99-38.16-49.32,6.68-13.33,34.59-12.86,62.35,1.05,27.76,13.91,44.85,35.99,38.17,49.32Z"/>
        <path class="cls-7" d="M232.63,935.84s19.55,47.9,93.76,56.91c0,0-21.4,11.48-63.26-11.42,0,0-39.42-24.25-30.5-45.48Z"/>
        <path class="cls-7" d="M265.79,982.66l24.19-48.27s5.36,2.55,8.76,4.48l-24.11,48.12-8.84-4.33Z"/>
        <line class="cls-4" x1="265.87" y1="982.5" x2="289.98" y2="934.39"/>
        <line class="cls-4" x1="298.75" y1="938.87" x2="274.63" y2="986.99"/>
        <path class="cls-4" d="M333.15,986.22c-6.68,13.33-34.6,12.86-62.36-1.05-27.76-13.91-44.84-35.99-38.16-49.32,6.68-13.33,34.59-12.86,62.35,1.05,27.76,13.91,44.85,35.99,38.17,49.32Z"/>
      </g>
      <g>
        <path class="cls-1" d="M668.01,1058c-.13,.29-.33,.63-.53,1.06-.06,.14-.15,.24-.21,.37v.04s-.04,.06-.04,.06c-.13,.29-.31,.6-.51,.94-.95,1.73-2.37,3.99-4.29,6.64-.14,.22-.29,.38-.46,.58-10.29,13.68-34.71,35.78-85.3,36.95-41.48-50.19-28.39-90.3-24.84-98.85,.44-1.13,.74-1.71,.74-1.71,8.21-18,28.21-26.54,44.59-19.06,13.35,6.1,15.85,30.39,13.44,45.55,0,.19-.03,.34-.06,.48,.09-.12,.22-.22,.36-.35,9.91-10.71,29.2-24.13,42-18.28,15.92,7.26,22.65,26.91,15.54,44.55-.15,.32-.28,.7-.43,1.02Z"/>
        <path class="cls-7" d="M551.84,1005.8s-4.31,77.96,46.1,96.97c0,0-16.63,1.97-21.26,1.88,0,0-43.52-49.49-24.84-98.85Z"/>
        <polyline class="cls-4" points="654.85 1075.84 623.35 1061.47 623 1043.13 593.14 1078.35 598.28 1046.09 576.94 1061.01 577.28 1040.44 547.27 1026.73"/>
        <path class="cls-4" d="M668.01,1058c-.13,.29-.33,.63-.53,1.06-.06,.14-.15,.24-.21,.37v.04s-.04,.06-.04,.06c-.13,.29-.31,.6-.51,.94-.95,1.73-2.37,3.99-4.29,6.64-.14,.22-.29,.38-.46,.58-10.29,13.68-34.71,35.78-85.3,36.95-41.48-50.19-28.39-90.3-24.84-98.85,.44-1.13,.74-1.71,.74-1.71,8.21-18,28.21-26.54,44.59-19.06,13.35,6.1,15.85,30.39,13.44,45.55,0,.19-.03,.34-.06,.48,.09-.12,.22-.22,.36-.35,9.91-10.71,29.2-24.13,42-18.28,15.92,7.26,22.65,26.91,15.54,44.55-.15,.32-.28,.7-.43,1.02Z"/>
      </g>
      <g>
        <polygon class="cls-1" points="166.8 911.01 190.39 929.54 187.86 932.76 178.85 925.69 132.42 984.82 145.11 994.79 143.89 996.35 139.09 992.58 62.34 1090.31 56.83 1085.98 49.78 1094.96 45.87 1091.89 -8.71 1161.38 -11.24 1159.39 43.33 1089.9 39.42 1086.82 46.47 1077.85 40.97 1073.52 117.71 975.79 112.92 972.02 114.14 970.47 126.83 980.44 173.27 921.3 164.27 914.24 166.8 911.01"/>
        <polygon class="cls-5" points="185.33 925.57 190.39 929.54 187.86 932.76 178.85 925.69 132.42 984.82 145.11 994.79 143.89 996.35 139.09 992.58 62.34 1090.31 56.83 1085.98 49.78 1094.96 45.87 1091.89 55.43 1079.71 62.19 1082.37 136.78 990.76 129.67 985.18 177.73 923.99 185.33 925.57"/>
        <polygon class="cls-4" points="-8.71 1161.38 45.87 1091.89 49.78 1094.96 56.83 1085.98 62.34 1090.31 139.09 992.58 143.89 996.35 145.11 994.79 132.42 984.82 174.44 931.32 178.85 925.69 187.86 932.76 190.39 929.54 166.8 911.01 164.27 914.24 173.27 921.3 153.77 946.14 126.83 980.44 114.14 970.47 112.92 972.02 117.71 975.79 111.53 983.67 40.97 1073.52 46.47 1077.85 39.42 1086.82 43.33 1089.9 -11.24 1159.39 -8.71 1161.38"/>
        <line class="cls-4" x1="139.09" y1="992.58" x2="117.71" y2="975.79"/>
        <polyline class="cls-4" points="56.83 1085.98 51.65 1081.91 46.47 1077.85"/>
        <line class="cls-4" x1="48.51" y1="1062.94" x2="60.47" y2="1072.33"/>
        <line class="cls-4" x1="62.15" y1="1045.58" x2="74.1" y2="1054.97"/>
        <line class="cls-4" x1="51.93" y1="1058.6" x2="57.91" y2="1063.29"/>
        <line class="cls-4" x1="55.33" y1="1054.26" x2="61.31" y2="1058.95"/>
        <line class="cls-4" x1="58.74" y1="1049.92" x2="64.72" y2="1054.62"/>
        <line class="cls-4" x1="65.56" y1="1041.25" x2="71.53" y2="1045.94"/>
        <line class="cls-4" x1="68.96" y1="1036.91" x2="74.94" y2="1041.6"/>
        <line class="cls-4" x1="72.37" y1="1032.57" x2="78.35" y2="1037.27"/>
        <line class="cls-4" x1="79.18" y1="1023.89" x2="85.16" y2="1028.58"/>
        <line class="cls-4" x1="82.59" y1="1019.55" x2="88.57" y2="1024.24"/>
        <line class="cls-4" x1="86" y1="1015.21" x2="91.98" y2="1019.9"/>
        <line class="cls-4" x1="92.82" y1="1006.54" x2="98.79" y2="1011.23"/>
        <line class="cls-4" x1="96.22" y1="1002.2" x2="102.2" y2="1006.89"/>
        <line class="cls-4" x1="99.63" y1="997.85" x2="105.61" y2="1002.55"/>
        <line class="cls-4" x1="75.78" y1="1028.23" x2="87.73" y2="1037.62"/>
        <line class="cls-4" x1="89.41" y1="1010.87" x2="101.36" y2="1020.26"/>
        <line class="cls-4" x1="103.04" y1="993.52" x2="114.99" y2="1002.91"/>
      </g>
      <g>
        <path class="cls-1" d="M359.35,1039.21c4.65,9.75,.52,21.44-9.24,26.09-9.76,4.66-21.44,.52-26.1-9.23-4.66-9.75-.52-21.44,9.24-26.09,9.76-4.66,21.44-.52,26.1,9.23Z"/>
        <path class="cls-5" d="M360.46,1053.18c-1.61,4.84-5.13,9.64-10.34,12.12-9.77,4.66-21.45,.52-26.11-9.24-2.33-4.88-2.46-10.24-.78-14.96,0,0,2.2,17.45,16.93,20.39,0,0,3.42,1.3,8.34-.06l-9.73-25.87,11.97,25.09c2.97-1.24,6.32-3.49,9.71-7.48Z"/>
        <line class="cls-4" x1="330.99" y1="1031.05" x2="347.85" y2="1066.38"/>
        <path class="cls-4" d="M349.95,1029.89c3.98,1.85,7.36,5.05,9.4,9.31,4.32,9.05,1.07,19.77-7.23,24.99l-16.63-34.85"/>
        <path class="cls-4" d="M359.35,1039.21c4.65,9.75,.52,21.44-9.24,26.09-9.76,4.66-21.44,.52-26.1-9.23-4.66-9.75-.52-21.44,9.24-26.09,9.76-4.66,21.44-.52,26.1,9.23Z"/>
      </g>
      <g>
        <polygon class="cls-1" points="114.28 396.46 129.36 408.31 127.74 410.37 121.99 405.85 92.29 443.67 100.4 450.04 99.62 451.04 96.56 448.63 47.47 511.13 43.94 508.37 39.43 514.11 36.93 512.15 2.03 556.59 .41 555.31 35.31 510.87 32.81 508.91 37.32 503.16 33.8 500.4 82.88 437.89 79.82 435.48 80.6 434.49 88.72 440.87 118.42 403.05 112.66 398.53 114.28 396.46"/>
        <polygon class="cls-5" points="126.13 405.77 129.36 408.31 127.74 410.37 121.99 405.85 92.29 443.67 100.4 450.04 99.62 451.04 96.56 448.63 47.47 511.13 43.94 508.37 39.43 514.11 36.93 512.15 43.05 504.36 47.37 506.06 95.07 447.47 90.53 443.9 121.26 404.76 126.13 405.77"/>
        <polygon class="cls-4" points="2.03 556.59 36.93 512.15 39.43 514.11 43.94 508.37 47.47 511.13 96.56 448.63 99.62 451.04 100.4 450.04 92.29 443.67 119.16 409.45 121.99 405.85 127.74 410.37 129.36 408.31 114.28 396.46 112.66 398.53 118.42 403.05 105.94 418.93 88.72 440.87 80.6 434.49 79.82 435.48 82.88 437.89 78.93 442.94 33.8 500.4 37.32 503.16 32.81 508.91 35.31 510.87 .41 555.31 2.03 556.59"/>
        <line class="cls-4" x1="96.56" y1="448.63" x2="82.88" y2="437.89"/>
        <polyline class="cls-4" points="43.94 508.37 40.63 505.76 37.32 503.16"/>
        <line class="cls-4" x1="38.63" y1="493.63" x2="46.27" y2="499.63"/>
        <line class="cls-4" x1="47.35" y1="482.53" x2="54.99" y2="488.53"/>
        <line class="cls-4" x1="40.81" y1="490.86" x2="44.63" y2="493.86"/>
        <line class="cls-4" x1="42.99" y1="488.08" x2="46.81" y2="491.08"/>
        <line class="cls-4" x1="45.17" y1="485.3" x2="48.99" y2="488.31"/>
        <line class="cls-4" x1="49.52" y1="479.76" x2="53.35" y2="482.76"/>
        <line class="cls-4" x1="51.7" y1="476.98" x2="55.53" y2="479.98"/>
        <line class="cls-4" x1="53.88" y1="474.2" x2="57.71" y2="477.21"/>
        <line class="cls-4" x1="58.24" y1="468.65" x2="62.07" y2="471.66"/>
        <line class="cls-4" x1="60.42" y1="465.88" x2="64.25" y2="468.88"/>
        <line class="cls-4" x1="62.6" y1="463.11" x2="66.42" y2="466.11"/>
        <line class="cls-4" x1="66.96" y1="457.56" x2="70.78" y2="460.56"/>
        <line class="cls-4" x1="69.14" y1="454.78" x2="72.96" y2="457.78"/>
        <line class="cls-4" x1="71.32" y1="452" x2="75.14" y2="455.01"/>
        <line class="cls-4" x1="56.06" y1="471.43" x2="63.71" y2="477.43"/>
        <line class="cls-4" x1="64.78" y1="460.33" x2="72.43" y2="466.34"/>
        <line class="cls-4" x1="73.5" y1="449.23" x2="81.14" y2="455.24"/>
        <line class="cls-4" x1="36.93" y1="512.15" x2="35.31" y2="510.87"/>
      </g>
      <g>
        <path class="cls-1" d="M465.55,1095.25c3.49,13.09-4.28,26.48-17.36,29.97-13.06,3.48-26.45-4.29-29.94-17.37-2.67-10.04,1.29-20.31,9.21-26.08l-33.17-124.55c-1.12-4.2,1.81-8.64,6.52-9.9,2.36-.63,4.76-.35,6.67,.62,1.9,.95,3.39,2.62,3.94,4.7l33.18,124.58c9.74,1.07,18.28,7.99,20.95,18.02Z"/>
        <path class="cls-7" d="M400.81,947.31c-2.82,.98-7.64,5.7-6.52,9.9l33.17,124.55c-7.91,5.77-11.88,16.05-9.21,26.08,3.49,13.08,16.88,20.84,29.94,17.37,13.08-3.49,20.85-16.88,17.36-29.97-.21-.81-.47-1.59-.76-2.35,0,0-1.95,21.31-18.32,25.81,0,0-16.84,4.04-22.5-12,0,0-2.32-18.88,9.21-20.54l-33.03-128.68s-.88-2.95,.67-10.17Z"/>
        <line class="cls-4" x1="441.62" y1="1067.11" x2="433.32" y2="1069.33"/>
        <line class="cls-4" x1="413.47" y1="961.4" x2="405.16" y2="963.61"/>
        <line class="cls-4" x1="418.16" y1="979.01" x2="409.85" y2="981.23"/>
        <line class="cls-4" x1="422.86" y1="996.64" x2="414.54" y2="998.85"/>
        <line class="cls-4" x1="427.54" y1="1014.25" x2="419.24" y2="1016.47"/>
        <line class="cls-4" x1="432.24" y1="1031.88" x2="423.93" y2="1034.09"/>
        <line class="cls-4" x1="436.93" y1="1049.5" x2="428.62" y2="1051.71"/>
        <path class="cls-4" d="M465.58,1095.25c3.49,13.09-4.28,26.48-17.36,29.97-13.06,3.48-26.45-4.29-29.94-17.37-2.67-10.04,1.29-20.31,9.21-26.08l-33.17-124.55c-1.12-4.2,1.81-8.64,6.52-9.9,2.36-.63,4.76-.35,6.67,.62,1.9,.95,3.39,2.62,3.94,4.7l33.18,124.58c9.74,1.07,18.28,7.99,20.95,18.02Z"/>
      </g>
      <g>
        <path class="cls-1" d="M110.43,876.55c0,9.05-7.34,16.4-16.39,16.4H13.42c-9.05,0-16.39-7.34-16.39-16.4v-16.39c0-9.05,7.34-16.39,16.39-16.39H94.04c9.06,0,16.39,7.34,16.39,16.39v16.39Z"/>
        <rect class="cls-5" x="48.61" y="843.76" width="10.25" height="49.19"/>
        <path class="cls-5" d="M-2.97,868.35s0,31.83,111.5,15.86c0,0-2.63,10.51-25.39,8.73H13.42s-17.07,3.14-16.39-24.6Z"/>
        <line class="cls-4" x1="58.86" y1="843.76" x2="58.86" y2="892.95"/>
        <line class="cls-4" x1="48.61" y1="843.76" x2="48.61" y2="892.95"/>
        <path class="cls-4" d="M110.43,876.58c0,9.05-7.34,16.4-16.39,16.4H13.42c-9.05,0-16.39-7.34-16.39-16.4v-16.39c0-9.05,7.34-16.39,16.39-16.39H94.04c9.06,0,16.39,7.34,16.39,16.39v16.39Z"/>
      </g>
      <g>
        <path class="cls-1" d="M88.13,138.47c-6.68,13.33-34.6,12.86-62.36-1.05C-1.99,123.5-19.07,101.42-12.39,88.09c6.68-13.33,34.59-12.86,62.35,1.05,27.76,13.91,44.85,35.99,38.17,49.32Z"/>
        <path class="cls-7" d="M-12.39,88.09s19.55,47.9,93.76,56.91c0,0-21.4,11.48-63.26-11.42,0,0-39.42-24.25-30.5-45.48Z"/>
        <path class="cls-7" d="M20.77,134.9l24.19-48.27s5.36,2.55,8.76,4.48l-24.11,48.12-8.84-4.33Z"/>
        <line class="cls-4" x1="20.85" y1="134.74" x2="44.96" y2="86.63"/>
        <line class="cls-4" x1="53.72" y1="91.12" x2="29.61" y2="139.24"/>
        <path class="cls-4" d="M88.13,138.47c-6.68,13.33-34.6,12.86-62.36-1.05C-1.99,123.5-19.07,101.42-12.39,88.09c6.68-13.33,34.59-12.86,62.35,1.05,27.76,13.91,44.85,35.99,38.17,49.32Z"/>
      </g>
      <g>
        <path class="cls-1" d="M64.59,327.09c-.13,.29-.33,.63-.53,1.06-.06,.14-.15,.24-.21,.37v.04s-.04,.06-.04,.06c-.13,.29-.31,.6-.51,.94-.95,1.73-2.37,3.99-4.29,6.64-.14,.22-.29,.38-.46,.58-10.29,13.68-34.71,35.78-85.3,36.95-41.48-50.19-28.39-90.3-24.84-98.85,.44-1.13,.74-1.71,.74-1.71,8.21-18,28.21-26.54,44.59-19.06,13.35,6.1,15.85,30.39,13.44,45.55,0,.19-.03,.34-.06,.48,.09-.12,.22-.22,.36-.35,9.91-10.71,29.2-24.13,42-18.28,15.92,7.26,22.65,26.91,15.54,44.55-.15,.32-.28,.7-.43,1.02Z"/>
        <polyline class="cls-4" points="51.43 344.93 19.93 330.56 19.58 312.22 -10.28 347.44 -5.14 315.18 -26.48 330.1 -26.14 309.53 -56.16 295.82"/>
        <path class="cls-4" d="M64.59,327.09c-.13,.29-.33,.63-.53,1.06-.06,.14-.15,.24-.21,.37v.04s-.04,.06-.04,.06c-.13,.29-.31,.6-.51,.94-.95,1.73-2.37,3.99-4.29,6.64-.14,.22-.29,.38-.46,.58-10.29,13.68-34.71,35.78-85.3,36.95-41.48-50.19-28.39-90.3-24.84-98.85,.44-1.13,.74-1.71,.74-1.71,8.21-18,28.21-26.54,44.59-19.06,13.35,6.1,15.85,30.39,13.44,45.55,0,.19-.03,.34-.06,.48,.09-.12,.22-.22,.36-.35,9.91-10.71,29.2-24.13,42-18.28,15.92,7.26,22.65,26.91,15.54,44.55-.15,.32-.28,.7-.43,1.02Z"/>
      </g>
      <g>
        <path class="cls-1" d="M57.73,705.29c-8.75,9.66-20.35,14.89-34.52,15.54,.22,30.73-6.19,52.62-19.09,65.07-9.81,9.46-20.09,10.04-22.38,10.04-.27,0-.42,0-.45-.04-12.53-.12-22.69-4.54-30.05-13.13-13.79-16.08-13.82-42.42-12.98-54.38-8.44-1.98-14.74-9.54-14.74-18.6,0-10.53,8.56-19.09,19.09-19.09s19.09,8.56,19.09,19.09c0,9.43-6.83,17.26-15.81,18.79-.73,10.77-.88,35.2,11.15,49.22,5.88,6.87,14.09,10.39,24.48,10.5,.5,0,9.04,.19,17.49-8.1,7.75-7.6,16.84-24.02,16.58-59.37-14.17-.65-25.77-5.88-34.52-15.54-23.45-25.93-18.37-74.43-18.14-76.49,.96-8.24,4.2-14.39,9.63-18.25,5-3.56,10.92-4.47,15.39-4.51,.88-2.29,3.09-3.9,5.69-3.9H-3.59c3.39,0,6.14,2.75,6.14,6.18s-2.75,6.15-6.14,6.15h-2.79c-2.86,0-5.27-1.94-5.92-4.58-3.89,.08-8.86,.88-12.98,3.78-4.51,3.21-7.18,8.44-7.98,15.58-.08,.46-5.16,48.84,17.14,73.47,8.75,9.66,20.7,14.5,35.47,14.32,.27,.04,.5,.04,.73,.04,14.55,0,26.24-4.85,34.83-14.36,22.3-24.68,17.22-73.02,17.15-73.51-.81-7.1-3.52-12.37-8.02-15.54-3.55-2.56-7.71-3.47-11.26-3.7-.53,2.86-3.02,5-6.07,5h-2.75c-3.39,0-6.15-2.75-6.15-6.15s2.75-6.18,6.15-6.18h2.75c2.44,0,4.5,1.41,5.5,3.43,4.28,.19,9.5,1.26,14.05,4.47,5.46,3.86,8.67,10,9.63,18.25,.22,2.06,5.3,50.56-18.14,76.49Z"/>
        <path class="cls-4" d="M57.73,705.29c-8.75,9.66-20.35,14.89-34.52,15.54,.22,30.73-6.19,52.62-19.09,65.07-9.81,9.47-20.09,10.04-22.38,10.04-.27,0-.42,0-.45-.03-12.53-.12-22.69-4.54-30.05-13.14-13.79-16.07-13.82-42.42-12.98-54.38-8.44-1.99-14.74-9.54-14.74-18.6,0-10.53,8.56-19.09,19.09-19.09s19.09,8.56,19.09,19.09c0,9.44-6.83,17.26-15.81,18.79-.73,10.77-.88,35.21,11.15,49.22,5.88,6.87,14.09,10.38,24.48,10.5,.5,0,9.04,.19,17.49-8.1,7.75-7.6,16.84-24.01,16.58-59.37-14.17-.65-25.77-5.88-34.52-15.54-23.45-25.93-18.37-74.43-18.14-76.49,.96-8.24,4.2-14.39,9.63-18.25,5-3.56,10.92-4.47,15.39-4.51,.88-2.29,3.09-3.9,5.69-3.9H-3.59c3.39,0,6.14,2.75,6.14,6.18s-2.75,6.15-6.14,6.15h-2.79c-2.86,0-5.27-1.94-5.92-4.58-3.89,.08-8.86,.88-12.98,3.78-4.51,3.21-7.18,8.44-7.98,15.58-.08,.46-5.16,48.84,17.14,73.47,8.75,9.66,20.7,14.51,35.47,14.32,.27,.03,.5,.03,.73,.03,14.55,0,26.24-4.85,34.83-14.36,22.3-24.67,17.22-73.01,17.15-73.51-.81-7.1-3.52-12.37-8.02-15.54-3.55-2.56-7.71-3.47-11.26-3.7-.53,2.86-3.02,5-6.07,5h-2.75c-3.39,0-6.15-2.75-6.15-6.15s2.75-6.18,6.15-6.18h2.75c2.44,0,4.5,1.41,5.5,3.43,4.28,.19,9.5,1.27,14.05,4.47,5.46,3.86,8.67,10.01,9.63,18.25,.22,2.06,5.3,50.56-18.14,76.49Z"/>
        <line class="cls-4" x1="52.2" y1="606.08" x2="52.77" y2="609.98"/>
      </g>
      <g>
        <path class="cls-1" d="M195.93,727.06c0,7.42-4.85,13.44-10.81,13.44h-39.01v39.04c0,5.96-6.04,10.78-13.46,10.78-3.73,0-7.07-1.21-9.52-3.16-2.44-1.96-3.94-4.65-3.94-7.63v-39.04h-39.03c-2.98,0-5.67-1.5-7.64-3.94-1.94-2.42-3.16-5.78-3.16-9.5,0-7.44,4.83-13.46,10.79-13.46h39.03v-39.04c0-5.96,6.02-10.78,13.46-10.78,3.71,0,7.07,1.21,9.51,3.16,2.45,1.96,3.95,4.65,3.95,7.63v39.04h39.01c2.98,0,5.67,1.5,7.63,3.94,1.96,2.42,3.17,5.81,3.17,9.52Z"/>
        <path class="cls-7" d="M72.52,736.56h53.4v52.32s-7.76-2.46-6.64-14.77l-.1-33.6h-34.57s-7.72,1.59-12.1-3.94Z"/>
        <path class="cls-7" d="M119.19,713.6h6.74v-48.37s-6.74,3.1-6.74,9.33v39.04Z"/>
        <path class="cls-4" d="M195.93,727.06c0,7.42-4.85,13.44-10.81,13.44h-39.01v39.04c0,5.96-6.04,10.78-13.46,10.78-3.73,0-7.07-1.21-9.52-3.16-2.44-1.96-3.94-4.65-3.94-7.63v-39.04h-39.03c-2.98,0-5.67-1.5-7.64-3.94-1.94-2.42-3.16-5.78-3.16-9.5,0-7.44,4.83-13.46,10.79-13.46h39.03v-39.04c0-5.96,6.02-10.78,13.46-10.78,3.71,0,7.07,1.21,9.51,3.16,2.45,1.96,3.95,4.65,3.95,7.63v39.04h39.01c2.98,0,5.67,1.5,7.63,3.94,1.96,2.42,3.17,5.81,3.17,9.52Z"/>
      </g>
      <g>
        <rect class="cls-1" x="399.84" y="-21.72" width="86.2" height="37.39" rx="12.46" ry="12.46"/>
        <rect class="cls-5" x="439.04" y="-21.72" width="7.79" height="37.39"/>
        <path class="cls-5" d="M399.84-3.03s0,24.19,84.75,12.06c0,0-2,7.99-19.3,6.64h-52.99s-12.97,2.39-12.46-18.69Z"/>
        <line class="cls-4" x1="446.83" y1="-21.72" x2="446.83" y2="15.67"/>
        <line class="cls-4" x1="439.04" y1="-21.72" x2="439.04" y2="15.67"/>
        <path class="cls-4" d="M486.03,3.22c0,6.89-5.58,12.47-12.46,12.47h-61.28c-6.88,0-12.46-5.58-12.46-12.47V-9.23c0-6.89,5.58-12.46,12.46-12.46h61.28c6.88,0,12.46,5.58,12.46,12.46V3.22Z"/>
      </g>
      <g>
        <path class="cls-1" d="M258.51,15.47c-.13,.29-.33,.63-.53,1.06-.06,.14-.15,.24-.21,.37v.04s-.04,.06-.04,.06c-.13,.29-.31,.6-.51,.94-.95,1.73-2.37,3.99-4.29,6.64-.14,.22-.29,.38-.46,.58-10.29,13.68-34.71,35.78-85.3,36.95-41.48-50.19-28.39-90.3-24.84-98.85,.44-1.13,.74-1.71,.74-1.71,8.21-18,28.21-26.54,44.59-19.06,13.35,6.1,15.85,30.39,13.44,45.55,0,.19-.03,.34-.06,.48,.09-.12,.22-.22,.36-.35,9.91-10.71,29.2-24.13,42-18.28,15.92,7.26,22.65,26.91,15.54,44.55-.15,.32-.28,.7-.43,1.02Z"/>
        <path class="cls-7" d="M142.34-36.74s-4.31,77.96,46.1,96.97c0,0-16.63,1.97-21.26,1.88,0,0-43.52-49.49-24.84-98.85Z"/>
        <polyline class="cls-4" points="245.35 33.31 213.86 18.93 213.5 .59 183.64 35.81 188.79 3.55 167.45 18.47 167.78 -2.1 137.77 -15.8"/>
        <path class="cls-4" d="M258.51,15.47c-.13,.29-.33,.63-.53,1.06-.06,.14-.15,.24-.21,.37v.04s-.04,.06-.04,.06c-.13,.29-.31,.6-.51,.94-.95,1.73-2.37,3.99-4.29,6.64-.14,.22-.29,.38-.46,.58-10.29,13.68-34.71,35.78-85.3,36.95-41.48-50.19-28.39-90.3-24.84-98.85,.44-1.13,.74-1.71,.74-1.71,8.21-18,28.21-26.54,44.59-19.06,13.35,6.1,15.85,30.39,13.44,45.55,0,.19-.03,.34-.06,.48,.09-.12,.22-.22,.36-.35,9.91-10.71,29.2-24.13,42-18.28,15.92,7.26,22.65,26.91,15.54,44.55-.15,.32-.28,.7-.43,1.02Z"/>
      </g>
      <g>
        <path class="cls-1" d="M188.43,338.84c.22,15.4-12.09,28.07-27.49,28.29-15.4,.22-28.07-12.08-28.29-27.49-.22-15.4,12.09-28.06,27.49-28.29,15.41-.22,28.07,12.08,28.29,27.49Z"/>
        <path class="cls-5" d="M181.55,357.59c-4.96,5.31-12.38,9.42-20.6,9.54-15.42,.22-28.09-12.09-28.31-27.5-.12-7.7,2.92-14.72,7.9-19.82,0,0-7.54,23.91,9.78,36.48,0,0,3.65,3.72,10.84,4.88l2.8-39.29,.56,39.61c4.58,.17,10.26-.76,17.03-3.9Z"/>
        <line class="cls-4" x1="156.57" y1="311.41" x2="157.37" y2="367.18"/>
        <path class="cls-4" d="M181.81,321.19c4.05,4.77,6.53,10.91,6.63,17.66,.2,14.29-10.39,26.23-24.23,28.05l-.78-55.02"/>
        <path class="cls-4" d="M188.43,338.84c.22,15.4-12.09,28.07-27.49,28.29-15.4,.22-28.07-12.08-28.29-27.49-.22-15.4,12.09-28.06,27.49-28.29,15.41-.22,28.07,12.08,28.29,27.49Z"/>
      </g>
      <g>
        <path class="cls-1" d="M244.07,175.08c0,7.42-4.85,13.44-10.81,13.44h-39.01v39.04c0,5.96-6.04,10.78-13.46,10.78-3.73,0-7.07-1.21-9.52-3.16-2.44-1.96-3.94-4.65-3.94-7.63v-39.04h-39.03c-2.98,0-5.67-1.5-7.64-3.94-1.94-2.42-3.16-5.78-3.16-9.5,0-7.44,4.83-13.46,10.79-13.46h39.03v-39.04c0-5.96,6.02-10.78,13.46-10.78,3.71,0,7.07,1.21,9.51,3.16,2.45,1.96,3.95,4.65,3.95,7.63v39.04h39.01c2.98,0,5.67,1.5,7.63,3.94,1.96,2.42,3.17,5.81,3.17,9.52Z"/>
        <path class="cls-7" d="M120.66,184.58h53.4v52.32s-7.76-2.46-6.64-14.77l-.1-33.6h-34.57s-7.72,1.59-12.1-3.94Z"/>
        <path class="cls-7" d="M167.33,161.62h6.74v-48.37s-6.74,3.1-6.74,9.33v39.04Z"/>
        <path class="cls-4" d="M244.07,175.08c0,7.42-4.85,13.44-10.81,13.44h-39.01v39.04c0,5.96-6.04,10.78-13.46,10.78-3.73,0-7.07-1.21-9.52-3.16-2.44-1.96-3.94-4.65-3.94-7.63v-39.04h-39.03c-2.98,0-5.67-1.5-7.64-3.94-1.94-2.42-3.16-5.78-3.16-9.5,0-7.44,4.83-13.46,10.79-13.46h39.03v-39.04c0-5.96,6.02-10.78,13.46-10.78,3.71,0,7.07,1.21,9.51,3.16,2.45,1.96,3.95,4.65,3.95,7.63v39.04h39.01c2.98,0,5.67,1.5,7.63,3.94,1.96,2.42,3.17,5.81,3.17,9.52Z"/>
      </g>
      <line class="cls-2" x1="1374.26" y1="208.36" x2="1418.62" y2="164"/>
      <line class="cls-2" x1="1552.28" y1="859.85" x2="1596.64" y2="815.49"/>
      <line class="cls-2" x1="1694.27" y1="685.21" x2="1738.63" y2="640.85"/>
      <line class="cls-2" x1="877.75" y1="989.68" x2="922.11" y2="945.32"/>
      <line class="cls-2" x1="1218.6" y1="815.75" x2="1262.96" y2="771.39"/>
      <line class="cls-2" x1="581.03" y1="910.6" x2="625.39" y2="866.24"/>
      <line class="cls-2" x1="477.46" y1="794.44" x2="521.82" y2="750.08"/>
      <line class="cls-2" x1="596.94" y1="346.1" x2="641.3" y2="301.74"/>
      <line class="cls-2" x1="338.28" y1="102.31" x2="382.64" y2="57.95"/>
      <line class="cls-2" x1="1017.44" y1="143.15" x2="1061.8" y2="98.79"/>
      <line class="cls-2" x1="1600.78" y1="124.49" x2="1645.14" y2="80.13"/>
      <line class="cls-2" x1="1848.16" y1="442.89" x2="1892.52" y2="398.53"/>
      <line class="cls-2" x1="1786.81" y1="952.78" x2="1831.17" y2="908.42"/>
      <line class="cls-2" x1="1410.65" y1="973.31" x2="1455.01" y2="928.95"/>
      <line class="cls-2" x1="390.04" y1="389.19" x2="434.4" y2="344.83"/>
      <rect class="cls-3" x="300" y="-2.98" width="1620" height="1080"/>
    </g>
  </g>
</svg>