<?xml version="1.0" standalone="no"?><svg xmlns="http://www.w3.org/2000/svg" viewBox="0 0 1440 320"><path fill="#CAF4FF" fill-opacity="1" d="M0,320L34.3,277.3C68.6,235,137,149,206,149.3C274.3,149,343,235,411,256C480,277,549,235,617,213.3C685.7,192,754,192,823,165.3C891.4,139,960,85,1029,90.7C1097.1,96,1166,160,1234,154.7C1302.9,149,1371,75,1406,37.3L1440,0L1440,320L1405.7,320C1371.4,320,1303,320,1234,320C1165.7,320,1097,320,1029,320C960,320,891,320,823,320C754.3,320,686,320,617,320C548.6,320,480,320,411,320C342.9,320,274,320,206,320C137.1,320,69,320,34,320L0,320Z"></path></svg>